<svg version="1.1" viewBox="0 0 145 208" xmlns="http://www.w3.org/2000/svg">
 <g transform="translate(21.05 200.53)" fill-rule="evenodd">
  <path d="m2.35-32.7 5.5-7.65 90.35-1.15 23.75 26.8q-17.35 12.25-38 17.65-21.35 5.65-43.6 3.2-29.3-3.25-53.55-19.4l15.55-19.45" fill="#00c"/>
  <path d="m8.6-38.9-5 7.05-0.05 0.05-15.45 19.35-2.5-1.65 15.55-19.5 5.9-8.25 91.85-1.15 24.25 27.4-2.45 1.75-23.15-26.15-88.95 1.1" fill="#42210b"/>
  <path d="m73.65-59.55 2.25 1.85-26.4 54.1-26.15-48.9 2.25-1.8 3.15 1.65 6.15 2.7q8.2 3.45 12.7 4.55l1.75 0.3h0.1l2.15-0.45 3.2-1.45q3.15-1.6 7.65-4.55 5.2-3.45 11-7.85l0.2-0.15m-20.85 16.75q-2.1 0.7-3.35 0.7h-0.15l-1.65-0.2-2-0.55-5.1-1.65q-5.3-1.95-11.05-4.5l-1.35-0.65 21.5 40 20.7-43.65q-5.45 3.9-10.55 6.95-4.05 2.4-7 3.55" fill="#84634d"/>
  <path d="m52.8-42.8q2.95-1.15 7-3.55 5.1-3.05 10.55-6.95l-20.7 43.65-21.5-40 1.35 0.65q5.75 2.55 11.05 4.5l5.1 1.65 2 0.55 1.65 0.2h0.15q1.25 0 3.35-0.7" fill="url(#gradient0)"/>
  <path d="m73-51.25q-8.15 13.4-13.25 22.95-4.8 9.1-6.85 14.3l-0.55 1.55 0.75-0.5q5.6-3.35 12.25-4.65 4.95-0.9 10.8-2.45l7.2-1.75h0.05l-0.25-1.25q-0.8-3.25-2.2-5-1.15-1.55-2.6-1.95l-3.35-1.1 3.05-1.65 3.55-1.6q4.5-1.9 9.75-3.3l7.8-1.95-3.25-4.35-6.8-8.9-2.8-4.1-2.95-4-1.8-1.45-0.7-0.15-0.55 0.1-0.55 0.35-6.75 10.85m-21.2 43.15-2.2 4.45v-5.2q0.4-6 1.35-8.3l3.8-8.05q2.85-5.75 8.8-16.05l13.8-22.7 0.1-0.15 0.15-0.15 1.55-1 1.7-0.3q1.5 0 2.8 0.9l2.25 2.05 3.6 5.1q1.1 1.75 1.9 2.75l6.95 9 6.05 8.2-2.4 0.4h-0.05l-0.3 0.1-1.45 0.3-8.1 2.05q-4.9 1.3-9.15 3l-0.9 0.4 1.3 1.45q1.25 1.6 2.15 4.15 0.95 2.75 1.1 5.25l0.2 2.65-2.15-1.15-0.8 0.1-5.65 1.35-12.25 2.85q-6.05 1.15-11.2 4.25-2.6 1.5-2.95 2.3" fill="#998675"/>
  <path d="m73-51.25 6.75-10.85 0.55-0.35 0.55-0.1 0.7 0.15 1.8 1.45 2.95 4 2.8 4.1 6.8 8.9 3.25 4.35-7.8 1.95q-5.25 1.4-9.75 3.3l-3.55 1.6-3.05 1.65 3.35 1.1q1.45 0.4 2.6 1.95 1.4 1.75 2.2 5l0.25 1.25h-0.05l-7.2 1.75q-5.85 1.55-10.8 2.45-6.65 1.3-12.25 4.65l-0.75 0.5 0.55-1.55q2.05-5.2 6.85-14.3 5.1-9.55 13.25-22.95" fill="#fff"/>
  <path d="m20.55-59.55 0.2 0.05 0.5 0.05 9 8.05 0.1 0.2 8.45 16.5q8.45 16.45 9.8 21.15 1.3 4.65 1.1 7.2v2.85l-3-4.95q-3-2.75-5.6-4.45-2.25-1.45-4.2-1.45h-0.15q-4.1 0-9.75 1.7l-5.9 2-2.2 0.95 0.15-13.35-20.55-4.7 0.7-1.65q4.05-9.25 8.15-16.8 2.3-4.2 3.9-6.65l2.05-2.5q2.65-2.4 4.85-3.5 1.45-0.7 2.4-0.7m-0.4 3.15-0.7 0.25q-1.55 0.75-4.1 3l-1.4 1.7-1.75 2.7q-1.25 2.1-3.95 7.2-2.45 4.85-5.55 11.7l19.35 4.4-0.05 11.25 3.5-1.15q6.6-2 11.25-2h0.2q2.85 0 5.75 1.95l2.4 1.9-0.2-0.5-5.85-12.9-10.55-21.35-0.65-1.3-7.7-6.85" fill="#998675"/>
  <path d="m20.15-56.4 7.7 6.85 0.65 1.3 10.55 21.35 5.85 12.9 0.2 0.5-2.4-1.9q-2.9-1.95-5.75-1.95h-0.2q-4.65 0-11.25 2l-3.5 1.15 0.05-11.25-19.35-4.4q3.1-6.85 5.55-11.7 2.7-5.1 3.95-7.2l1.75-2.7 1.4-1.7q2.55-2.25 4.1-3l0.7-0.25" fill="#fff"/>
  <path d="m22.15-196.7q5.65-3.25 12.25-3.25 6.7 0 15.05 3.15 6.75 2.45 9.95 7.05 2.2 3.2 2.2 7 0 1.95-0.35 2.65l-0.45 1.55-1.45-0.55q-9.15-3.3-17.05-3.3-9.6 0-23.6 6.25-8.2 3.65-18.5 14.25-5.3 5.35-9.45 10.7v0.05l-1.35 1.7-1.15-1.85q-2.6-4.2-2.6-8.55 0-4 2.2-8 1.9-3.45 5.3-6.85 4.25-4.25 13.75-10.65l6.75-4.8q5.6-4.85 8.5-6.55m36.45 13.95q0-2.85-1.7-5.3-2.4-3.65-8.5-5.95-7.8-2.95-14-2.95-5.8 0-10.75 2.85-2.5 1.45-8.05 6.25l-4.95 3.6-6.55 4.45q-8.65 6.1-12.3 11.3-3.15 4.4-3.15 8.65 0 2.55 1.1 5.05 3.3-4.1 7.75-8.7 11.05-11.35 20-15.4 14.5-6.5 24.8-6.5 7.6 0 16.25 2.85h0.05v-0.2" fill="#42210b"/>
  <path d="m58.55-182.55q-8.65-2.85-16.25-2.85-10.3 0-24.8 6.5-8.95 4.05-20 15.4-4.45 4.6-7.75 8.7-1.1-2.5-1.1-5.05 0-4.25 3.15-8.65 3.65-5.2 12.3-11.3l6.55-4.45 4.95-3.6q5.55-4.8 8.05-6.25 4.95-2.85 10.75-2.85 6.2 0 14 2.95 6.1 2.3 8.5 5.95 1.7 2.45 1.7 5.3l-0.05 0.2" fill="url(#gradient1)"/>
  <path d="m105.45-109.7q2.45 1.8 3.45 3.9 0.8 1.6 0.8 3.65l-0.3 2.45q-1.25 5.4-3.55 9.6-2.85 5.35-7.2 8.4l-5.55 4.1q-2.9 2.05-4.9 2.9-1.85 0.7-3.35 0.7h-0.35q-0.8-0.1-1.35-0.55l-0.65-1q-0.3-0.85-0.3-2.1 0-1.2 0.35-3.55l0.85-4.4 2.6-10 3.85-12.4 0.1-0.2 1.3-1.5q1.45-1.65 3.3-2.6 1.7-0.8 3.3-0.8 1.55 0 2.95 0.7 2.95 1.45 4.65 2.7m1.25 7.55q0-1.35-0.5-2.35l-1.45-1.9q-1.55-1.5-5.25-3.3l-1.65-0.4q-0.9 0-1.9 0.45l-1.75 1.2-1.6 1.85-0.85 2.55-2.15 6.9q-3.25 11.1-4.1 16.4-0.3 1.9-0.3 3.1l0.05 0.65 1.85-0.5q1.2-0.5 2.7-1.5 1.95-1.3 7.15-5.15 3.6-2.5 6.3-7.4 2.1-3.9 3.25-8.85l0.2-1.75" fill="#84634d"/>
  <path d="m106.7-102.15-0.2 1.75q-1.15 4.95-3.25 8.85-2.7 4.9-6.3 7.4-5.2 3.85-7.15 5.15-1.5 1-2.7 1.5l-1.85 0.5-0.05-0.65q0-1.2 0.3-3.1 0.85-5.3 4.1-16.4l2.15-6.9 0.85-2.55 1.6-1.85 1.75-1.2q1-0.45 1.9-0.45l1.65 0.4q3.7 1.8 5.25 3.3l1.45 1.9q0.5 1 0.5 2.35" fill="url(#gradient2)"/>
  <path d="m-3.7-62.3q2-0.65 4.05-4.05 1.65-2.7-2.9-5.55-1.85-1.1-8.45-3.95-4.8-2-3.4-8.1l7.2 1.9-1.45 2.25q-0.65 2.65 3.2 4.35 6.25 2.8 7.1 6.55-0.6 5.3-4.2 6.35l-1.15 0.25q-1.2 0.35-2.35-0.25l1.05 0.2 1.3 0.05" fill="#754c24"/>
  <path d="m-13.1-82.05v0.05q0 1.55 0.55 2.7 0.65 1.4 2.15 2.1l0.8 0.35q-0.65-1.05-0.65-2.2l0.35-1.75 0.2-0.35-3.4-0.9m14.75 10q1.45 1.9 1.45 2.85l0.1 0.25-0.05 0.25q-0.35 3.25-1.9 5.3-1.35 1.65-3.4 2.3l-1.85 0.3-0.75 0.05q-1.1 0-2-0.45l1.15-2.75h0.05l1.25 0.15 1.05-0.55q1.05-0.7 2.35-2.75l0.2-0.65-0.15-0.6-0.65-0.85q-0.9-0.9-2.75-1.95l-7.3-3.3q-2.6-1.1-3.75-3.6-0.8-1.7-0.8-3.95l0.25-2.25 0.35-1.5 11.45 2.95-2.15 1.85-0.05 0.1-0.25 0.25-0.6 0.95-0.15 0.6 0.35 0.85 2.1 1.4q4.1 1.8 6.45 4.75" fill="#42210b"/>
  <path d="m8.05-79.35q0-3.9-2.2-8.5-2.9-6.15-9.45-12.75l-0.45-0.2-1.85-0.65q-2.95-0.95-5.4-0.95l-2.65 0.45q-1.1 0.5-1.65 1.4-1.25 2.05-1.25 5.05-0.05 3.25 1.6 6.6 1.8 3.4 4.65 5.15 8.1 5.1 15.6 7.4l2.45 0.6 0.1-0.25q0.5-1.4 0.5-3.35m0.5-9.8q2.5 5.2 2.5 9.8 0 3.7-1.4 5.95l-0.45 0.7h-0.9q-1.65 0-4.2-0.8-2.8-0.85-5.25-2-6-2.55-11.05-5.75-3.6-2.2-5.7-6.3-1.95-3.75-1.95-7.95 0-3.75 1.65-6.55 1.05-1.85 3.1-2.7l3.8-0.65q2.8 0 6.3 1.1l2.9 1.05 0.25 0.15 0.2 0.2q7.15 7.2 10.2 13.75" fill="#84634d"/>
  <path d="m8.05-79.35q0 1.95-0.5 3.35l-0.1 0.25-2.45-0.6q-7.5-2.3-15.6-7.4-2.85-1.75-4.65-5.15-1.65-3.35-1.6-6.6 0-3 1.25-5.05 0.55-0.9 1.65-1.4l2.65-0.45q2.45 0 5.4 0.95l1.85 0.65 0.45 0.2q6.55 6.6 9.45 12.75 2.2 4.6 2.2 8.5" fill="url(#gradient3)"/>
  <path d="m82.85-145.05q3.4 4.85 5.95 11.65 2.65 7.25 5.1 19.7l0.05 0.15-0.05 0.15q-0.4 16.25-4.15 31.1-2.15 8.45-5 13.85-4.45 8.5-12.15 15.45-6.95 6.3-14.45 9.4-4.9 2.05-8.75 2.05h-0.05q-6.7-0.05-15.2-4.55-7.9-4.2-18.9-13.05-8.65-7-14.05-20.25-3.85-9.3-5.85-20.85l-1.35-8.25-0.2-0.75-0.5-3.1q-0.35-2.6-0.35-5.75 0-10.1 3.45-18.65 4.85-11.75 15.65-17.85 8.5-4.85 20.7-5.85l11.1-0.5q14.75 0 24.25 4.05 9.15 3.8 14.75 11.85m8.05 31.9v-0.25q-2.7-13.45-5.75-21-3.7-9.25-9.8-14.55-4.5-3.85-10.45-5.95-8.45-3.05-21.05-3.05l-10.85 0.5q-11.45 0.9-19.5 5.45-6.8 3.85-11.1 10.3-6.45 9.75-6.45 23.6 0 4.2 0.55 7.15l1 5.5 1.55 8.65q2.9 13.3 7.8 22.4 4.35 8.15 10.3 12.9 10.8 8.75 18.4 12.75 7.8 4.15 13.8 4.2h0.05q3.35 0 7.6-1.8 4.55-1.9 9.05-5.2 10.5-7.6 16.05-18.3 4.8-8.9 7.2-25.8 1.35-9.2 1.6-17.5" fill="#84634d"/>
  <path d="m90.9-113.15q-0.25 8.3-1.6 17.5-2.4 16.9-7.2 25.8-5.55 10.7-16.05 18.3-4.5 3.3-9.05 5.2-4.25 1.8-7.6 1.8h-0.05q-6-0.05-13.8-4.2-7.6-4-18.4-12.75-5.95-4.75-10.3-12.9-4.9-9.1-7.8-22.4l-1.55-8.65-1-5.5q-0.55-2.95-0.55-7.15 0-13.85 6.45-23.6 4.3-6.45 11.1-10.3 8.05-4.55 19.5-5.45l10.85-0.5q12.6 0 21.05 3.05 5.95 2.1 10.45 5.95 6.1 5.3 9.8 14.55 3.05 7.55 5.75 21v0.25" fill="url(#gradient4)"/>
  <path d="m63.75-111.65q-7.65 2.6-8.35 2.15-0.95-0.65 0-1.9 1-1.4 3.6-2.15l6.1-1.8 9.3-1.85q3.25-0.3 3.05 0.65-0.1 0.4-1.75 0.8l-3.05 0.8-8.9 3.3" fill="#603813"/>
  <path d="m12.45-117.05 18.15 3.7q1.9 0.65 3.2 2.05 1.35 1.5 1.2 2.9-0.1 1.15-3.8-0.5l-5.2-2.35-8.95-3.1-3.8-0.95q-1.85-0.35-1.75-1.1 0.15-0.7 0.95-0.65" fill="#603813"/>
  <path d="m55.15-192.35-2.75-1.05 2.45-1.6q0.1 0 2.65-1.25 3.2-1.25 6.4-1.25 2.9 0 5.4 0.95 6.2 2.45 10.1 5l1.85-0.4q2.05 0 4.25 1.6l1.85 1.55 2.4 2.55q3 3.35 5.85 7.75 7.45 11.9 7.5 22.9 0 3.7-0.9 7.2l-0.25 2-2.9 0.4-0.05-0.15-1-2.2-3.45-5.85q-6.25-9.35-14.6-14.55-7.25-4.55-15.9-5.55l-0.45-0.05-5.1-4.1 0.2-0.9v-0.05l0.05-0.25 0.1-0.9 0.2-3q0-2.05-0.45-4.1-0.5-2.1-1.6-3.35l-1.85-1.35m20.7 2.2q-3.3-1.9-7.65-3.6-2.05-0.75-4.3-0.75-2.5-0.05-5.15 0.95l0.5 0.55q1 1.15 1.8 3.05 1 2.7 1 6.4l-0.25 3.9 3 2.4q9.05 1.1 16.7 5.95 6.35 3.9 11.65 10.25 4.05 4.8 6.65 9.5l0.3-4.05q0-8.95-5.7-19-4.05-7.15-9.15-12.05l-1.45-1.25q-1.55-1.05-2.55-1.05l-0.6 0.15-0.2 0.1-0.85 1-1.1-0.8h-0.05v-0.05l-0.1-0.05-2.5-1.55" fill="#42210b"/>
  <path d="m75.85-190.15 2.5 1.55 0.1 0.05v0.05h0.05l1.1 0.8 0.85-1 0.2-0.1 0.6-0.15q1 0 2.55 1.05l1.45 1.25q5.1 4.9 9.15 12.05 5.7 10.05 5.7 19l-0.3 4.05q-2.6-4.7-6.65-9.5-5.3-6.35-11.65-10.25-7.65-4.85-16.7-5.95l-3-2.4 0.25-3.9q0-3.7-1-6.4-0.8-1.9-1.8-3.05l-0.5-0.55q2.65-1 5.15-0.95 2.25 0 4.3 0.75 4.35 1.7 7.65 3.6" fill="url(#gradient5)"/>
  <path d="m64.45-169.5q-4.9-1.8-10-1.8l-5.65 0.6-2.2 0.65-1.5-2.6 1.95-1.05 2.5-0.9 6.05-1.5 5.15-1q-3.3-3.45-6.4-5.2-6.05-3.5-15.25-3.7l-1.65-0.05q-15.6 0-27.1 8.25-7.95 5.8-16.7 18.65-5.1 7.5-7.3 17.45l-0.75 4.3 2.05-3.1 0.8-1.5q8.85-15.55 25.75-27.15l0.15-0.1 1.85 2.35-0.15 0.15-0.5 0.4-1.75 1.65-6.05 5.75q-9.75 9.65-15.6 17.35l-1.95 2.7q-4.75 8.9-6.85 19.2-0.6 3-0.6 5.85 0 4.6 1.35 7.4l2.8-0.6q0.2-4.05 0.75-7.8l-0.05-2.05q0-10.65 4-19.1 4.85-10.2 15.2-16.9l0.6-0.45 0.05 0.05v-0.05l1.6 2.5-0.15 0.1-0.55 0.4-2 1.8q-3.2 3-6.3 7.7-7.25 11.15-9.4 26.3 0.25 6 1.75 12.25l0.6 2.25q1-6.8 3.75-15.6h-0.05q2.15-7.2 9.25-15.6l1.65-2.3q8.8-10 16.45-16.6 12.05-10.45 22.95-14.35l1.25 2.7-3.95 2.55q-4.8 3.05-9.9 6.8-15.85 11.65-24.8 21.6l-1.2 1.4q-1.7 2.95-2.6 7.65-1 5.25-1 12.2 0 3.4 0.25 6.8l2.4-2.45 9.7-8.55q12.85-10.65 25.65-19.35 10.1-6.9 17.9-20.95 3.85-6.9 5.7-12.1l-0.75 0.15-2.85 0.8-4.5 1.5-5.55 2.05 3.55-4.3q0.6-0.75 1.65-1.35l2-0.95 4.45-1.15h0.2l-0.15-0.05m-25.25-19.5q9.8 0.2 16.65 4.1 4.3 2.4 8.95 7.8l1.75 2.05-6.45 1.1-0.45 0.1q5.7 0.9 11.05 3.95l4.5 2.5-5.35 0.3q-2 6.2-6.15 13.75-8.4 15.3-19.2 22.65-18.15 12.35-31.85 24.75-4.05 3.6-6.1 5.95-1.1 1.15-1.3 1.8l-2.2 4.9-0.65-5.35q-0.6-4.8-0.6-10.95 0-6.75 0.95-12.15-2.2 3.65-3.15 6.95-4.25 13.75-4.25 22.3v0.65l-2.95 0.3-0.85-2.65-1.65-5.65-1-4.55-6.25 1.3-0.6-0.85q-2.3-3.5-2.3-9.9 0-3.35 0.65-6.45 1.05-5.05 2.65-9.7l-0.95-0.15v-0.7q0-5.5 1.3-11.45 2.3-10.5 7.75-18.5 8.9-13.2 17.45-19.4 12.1-8.85 28.85-8.85l1.75 0.05" fill="#42210b"/>
  <path d="m7.4-153.35-0.6 0.45q-10.35 6.7-15.2 16.9-4 8.45-4 19.1l0.05 2.05q-0.55 3.75-0.75 7.8l-2.8 0.6q-1.35-2.8-1.35-7.4 0-2.85 0.6-5.85 2.1-10.3 6.85-19.2l1.95-2.7q5.85-7.7 15.6-17.35l6.05-5.75 1.75-1.65 0.5-0.4 0.15-0.15-1.85-2.35-0.15 0.1q-16.9 11.6-25.75 27.15l-0.8 1.5-2.05 3.1 0.75-4.3q2.2-9.95 7.3-17.45 8.75-12.85 16.7-18.65 11.5-8.25 27.1-8.25l1.65 0.05q9.2 0.2 15.25 3.7 3.1 1.75 6.4 5.2l-5.15 1-6.05 1.5-2.5 0.9-1.95 1.05 1.5 2.6 2.2-0.65 5.65-0.6q5.1 0 10 1.8l-0.05 0.05-4.45 1.15-2 0.95q-1.05 0.6-1.65 1.35l-3.55 4.3 5.55-2.05 4.5-1.5 2.85-0.8 0.75-0.15q-1.85 5.2-5.7 12.1-7.8 14.05-17.9 20.95-12.8 8.7-25.65 19.35l-9.7 8.55-2.4 2.45q-0.25-3.4-0.25-6.8 0-6.95 1-12.2 0.9-4.7 2.6-7.65l1.2-1.4q8.95-9.95 24.8-21.6 5.1-3.75 9.9-6.8l3.95-2.55-1.25-2.7q-10.9 3.9-22.95 14.35-7.65 6.6-16.45 16.6l-1.65 2.3q-7.1 8.4-9.25 15.6h0.05q-2.75 8.8-3.75 15.6l-0.6-2.25q-1.5-6.25-1.75-12.25 2.15-15.15 9.4-26.3 3.1-4.7 6.3-7.7l2-1.8 0.55-0.4 0.15-0.1-1.6-2.5h-0.05" fill="url(#gradient6)"/>
  <path d="m65.7-177.15 5.15-0.15q9.3 0 15.95 4 10 6 15 20.85 4.05 11.75 4.9 29.25l0.1 4.35q0 15.55-5.6 25.85-2.85 5.25-5.9 7.5l-3.75 2.7 1.45-4.4 0.75-4 0.2-5.1q0.05-7.1-1.2-16.1-12.3-10.4-22.45-26.45-3.2-5.1-5.75-10.1l-1.95-4.05-0.4-0.9 0.6-0.7q2.4-2.75 3.45-6.15 0.8-2.65 0.8-5.15l-0.15-1.85-12.4-6.7 9.65-2.9 0.4 0.1 1.15 0.1m0 3-1.4-0.1-2 0.6 7.3 3.95 0.15 0.65 0.3 3.15q0 3.05-0.9 6-1.15 3.55-3.45 6.5l1.5 3.1q2.45 4.75 5.65 9.85 9.95 15.85 22.25 26.05l0.45 0.4 0.05 0.55 0.7 5.5q0.65 6.55 0.65 11.65l-0.15 4.7 1.75-2.85q5.25-9.6 5.25-24.4l-0.1-4.2q-0.9-19-5.65-31-3.85-9.8-10.25-14.95-3.4-2.65-7.6-4-4.15-1.3-9.35-1.3l-5.15 0.15" fill="#42210b"/>
  <path d="m65.7-174.15 5.15-0.15q5.2 0 9.35 1.3 4.2 1.35 7.6 4 6.4 5.15 10.25 14.95 4.75 12 5.65 31l0.1 4.2q0 14.8-5.25 24.4l-1.75 2.85 0.15-4.7q0-5.1-0.65-11.65l-0.7-5.5-0.05-0.55-0.45-0.4q-12.3-10.2-22.25-26.05-3.2-5.1-5.65-9.85l-1.5-3.1q2.3-2.95 3.45-6.5 0.9-2.95 0.9-6l-0.3-3.15-0.15-0.65-7.3-3.95 2-0.6 1.4 0.1" fill="url(#gradient7)"/>
  <path d="m69.65-162.5 1.55-2.55 2.5 1.7q3.05 2.2 5.9 4.9 9.2 8.7 12.95 18.6 7.75 20.7 7.75 34.95 0 6.9-1.65 12.95l-2.9-0.8q1.55-5.5 1.55-12.15 0-13.8-7.55-33.85-3.5-9.15-11.8-17.1l-5.55-4.75-2.7-1.85-0.05-0.05" fill="#42210b"/>
  <path d="m63.15-182.2-1.45 0.05-0.15-3 1.6-0.05q8.2 0 16.15 2.2 13.35 3.8 20.7 12.6l-2.35 1.95q-6.75-8.2-19.15-11.65-7.55-2.1-15.35-2.1" fill="#42210b"/>
  <path d="m61.7-190.6q3.85-3.05 9.3-3.05 3.2 0 6.7 1.05l-0.85 2.9q-3.05-0.95-5.85-0.95-4.25 0-7.25 2.3l-2.25 2.4-2.6-1.45 2.8-3.2" fill="#42210b"/>
  <path d="m33.45-66.35-1.45-4.1q0.9 0.75 6.65 1l8.35 0.3 9-0.6q6.1-0.8 6.75-1.25 0.85-0.55 0.3 1.3l-0.7 2q-1.8 4.25-4 6.3-3.65 3.5-10.05 3.75-8.9 0.35-13.65-6.65l-1.2-2.05m0.9-1.7q0.55 3.65 5.2 5.95 4.4 2.1 9.55 1.8 5.9-0.35 9.8-4.65l2.7-4.25q-8.55 3.45-27.25 1.15" fill="#c1272d"/>
  <path d="m49.3-60.4q-5.15 0.5-9.6-1.45-4.75-2.1-5.45-5.75 18.8 1.6 27.2-2.15l-2.55 4.3q-3.75 4.45-9.6 5.05" fill="#fff"/>
 </g>
 <defs>
  <linearGradient id="gradient0" x1="-819.2" x2="819.2" gradientTransform="matrix(0 -.0166 1 0 -297 -35.45)" gradientUnits="userSpaceOnUse">
   <stop stop-color="#fff" offset="0"/>
   <stop stop-color="#fbc7c3" offset="1"/>
  </linearGradient>
  <linearGradient id="gradient1" x1="-819.2" x2="819.2" gradientTransform="matrix(.0392 -.0106 .0137 .0506 43.7 -169.45)" gradientUnits="userSpaceOnUse">
   <stop stop-color="#754c24" offset="0"/>
   <stop stop-color="#300" offset="1"/>
  </linearGradient>
  <linearGradient id="gradient2" x1="-819.2" x2="819.2" gradientTransform="matrix(-.0189 -.0051 .2588 -.9659 24.1 182.65)" gradientUnits="userSpaceOnUse">
   <stop stop-color="#fff" offset="0"/>
   <stop stop-color="#fbc7c3" offset="1"/>
  </linearGradient>
  <linearGradient id="gradient3" x1="-819.2" x2="819.2" gradientTransform="matrix(.0142 -.0082 .5 .866 -148.6 -335.9)" gradientUnits="userSpaceOnUse">
   <stop stop-color="#fff" offset="0"/>
   <stop stop-color="#fbc7c3" offset="1"/>
  </linearGradient>
  <linearGradient id="gradient4" x1="-819.2" x2="819.2" gradientTransform="matrix(0 -.0861 1 0 -252.15 -107.4)" gradientUnits="userSpaceOnUse">
   <stop stop-color="#fff" offset="0"/>
   <stop stop-color="#fbc7c3" offset="1"/>
  </linearGradient>
  <linearGradient id="gradient5" x1="-819.2" x2="819.2" gradientTransform="matrix(-.02 -.016 .6233 -.7799 -55.65 -22.75)" gradientUnits="userSpaceOnUse">
   <stop stop-color="#754c24" offset="0"/>
   <stop stop-color="#300" offset="1"/>
  </linearGradient>
  <linearGradient id="gradient6" x1="-819.2" x2="819.2" gradientTransform="matrix(.0505 -.0292 .0262 .0455 42.85 -176.85)" gradientUnits="userSpaceOnUse">
   <stop stop-color="#754c24" offset="0"/>
   <stop stop-color="#300" offset="1"/>
  </linearGradient>
  <linearGradient id="gradient7" x1="-819.2" x2="819.2" gradientTransform="matrix(-.0208 -.0291 .8118 -.5813 -119.05 -11.65)" gradientUnits="userSpaceOnUse">
   <stop stop-color="#754c24" offset="0"/>
   <stop stop-color="#300" offset="1"/>
  </linearGradient>
 </defs>
</svg>
