<svg version="1.1" viewBox="0 0 72 21" xmlns="http://www.w3.org/2000/svg">
 <g transform="translate(1 1.0008)">
  <g transform="translate(-1.675,4.8)" fill-rule="evenodd">
   <path d="m4.65 0.25-2.1-2.2 2.2-1.45q2.65-1.4 5.95-1.3 2.8 0.05 5.65 1.2 5.2 2.15 7.5 6.1 1.15 2 1.25 3.75l-3 0.15v-0.1l-0.15-0.5-0.7-1.8q-1.8-3.05-6.05-4.8-2.35-0.95-4.55-1-3.2-0.1-5.6 1.6l-0.4 0.35" fill="#42210b"/>
   <path d="m53.1-1.45q2.1-1.75 4.55-2.5 3.15-0.9 5.85-0.85 4.65 0.1 7.3 2.85l-2.15 2.1q-1.75-1.85-5.2-1.95l-4.95 0.75q-1.9 0.6-3.45 1.85-1.1 0.9-2.4 2.7-1.25 1.9-1.85 3.6l-2.85-0.9q0.05-0.5 1.2-2.65 1.7-3.1 3.95-5" fill="#42210b"/>
   <path d="m17.3-0.1q2.6 2.1 2.95 5.4 0.3 3.35-1.8 5.9-2.1 2.6-5.45 2.95-3.35 0.3-5.95-1.8-2.55-2.1-2.85-5.45-0.35-3.3 1.75-5.85 2.1-2.65 5.45-2.95 3.35-0.35 5.9 1.8"/>
   <path d="m7.35 4.5q-0.2-1.8 1.65-2.05 1.9-0.15 2.05 1.7 0.25 1.9-1.7 2.05-1.85 0.25-2-1.7" fill="#fff"/>
   <path d="m67.1 0.15q2.35 2.45 2.3 5.9-0.1 3.45-2.55 5.85-2.5 2.35-5.95 2.3-3.45-0.1-5.8-2.55-2.4-2.5-2.3-5.95 0.05-3.45 2.55-5.8 2.45-2.4 5.9-2.3 3.45 0.05 5.85 2.55"/>
   <path d="m56.65 4.45q0.05-1.95 2-1.9t1.9 2-2 1.9-1.9-2" fill="#fff"/>
  </g>
 </g>
</svg>
