<svg version="1.1" viewBox="0 0 72 21" xmlns="http://www.w3.org/2000/svg">
 <g transform="translate(.775 7.9008)" fill="#42210b" fill-rule="evenodd">
  <path d="m2.7 7.75-2.7-1.5 1.8-2q2.1-2.1 5.3-2.95l5.8-0.4q5.55 0.6 8.9 3.75 1.65 1.55 2.25 3.2l-2.85 1-0.05-0.1-0.25-0.4-1.2-1.5q-2.55-2.45-7.15-3l-4.65 0.35q-3.1 0.85-4.95 3.1l-0.25 0.45"/>
  <path d="m53.15 1.4q2.4-1.25 5-1.35l5.9 0.5q4.45 1.2 6.4 4.55l-2.6 1.55q-1.25-2.25-4.55-3.2l-5.05-0.4q-1.95 0.1-3.8 0.95l-2.95 2.1q-1.65 1.5-2.65 3.05l-2.5-1.55q0.1-0.5 1.75-2.3 2.4-2.6 5.05-3.9"/>
 </g>
</svg>
