<?xml version="1.0" encoding="UTF-8" standalone="no"?>
<svg
   version="1.1"
   viewBox="0 0 145 208"
   id="svg108"
   sodipodi:docname="160.svg"
   inkscape:version="1.1.2 (b8e25be833, 2022-02-05)"
   xmlns:inkscape="http://www.inkscape.org/namespaces/inkscape"
   xmlns:sodipodi="http://sodipodi.sourceforge.net/DTD/sodipodi-0.dtd"
   xmlns="http://www.w3.org/2000/svg"
   xmlns:svg="http://www.w3.org/2000/svg">
  <sodipodi:namedview
     id="namedview110"
     pagecolor="#ffffff"
     bordercolor="#666666"
     borderopacity="1.0"
     inkscape:pageshadow="2"
     inkscape:pageopacity="0.0"
     inkscape:pagecheckerboard="0"
     showgrid="false"
     inkscape:zoom="4.3894231"
     inkscape:cx="72.560788"
     inkscape:cy="103.88609"
     inkscape:window-width="3440"
     inkscape:window-height="1330"
     inkscape:window-x="-12"
     inkscape:window-y="-12"
     inkscape:window-maximized="1"
     inkscape:current-layer="svg108" />
  <g
     transform="translate(97.3,126.52948)"
     id="g66"
     style="display:inline">
    <path
       d="M -73.9,41.3 -68.4,33.65 21.95,32.5 45.7,59.3 Q 28.35,71.55 7.7,76.95 -13.65,82.6 -35.9,80.15 -65.2,76.9 -89.45,60.75 L -73.9,41.3"
       fill="#0000cc"
       fill-rule="evenodd"
       stroke="none"
       id="path2-4" />
    <path
       d="m -67.65,35.1 -5,7.05 -0.05,0.05 -15.45,19.35 -2.5,-1.65 15.55,-19.5 5.9,-8.25 L 22.65,31 46.9,58.4 44.45,60.15 21.3,34 -67.65,35.1"
       fill="#42210b"
       fill-rule="evenodd"
       stroke="none"
       id="path4-7" />
    <path
       d="m -2.6,14.45 2.25,1.85 -26.4,54.1 -26.15,-48.9 2.25,-1.8 q 1.6,0.85 3.15,1.65 l 6.15,2.7 q 8.2,3.45 12.7,4.55 l 1.75,0.3 h 0.1 l 2.15,-0.45 3.2,-1.45 7.65,-4.55 11,-7.85 0.2,-0.15 m -24.35,17.45 -1.65,-0.2 -2,-0.55 -5.1,-1.65 Q -41,27.55 -46.75,25 l -1.35,-0.65 21.5,40 20.7,-43.65 -10.55,6.95 q -4.05,2.4 -7,3.55 -2.1,0.7 -3.35,0.7 h -0.15"
       fill="#84634d"
       fill-rule="evenodd"
       stroke="none"
       id="path6-3" />
    <path
       d="m -26.95,31.9 h 0.15 q 1.25,0 3.35,-0.7 2.95,-1.15 7,-3.55 l 10.55,-6.95 -20.7,43.65 -21.5,-40 1.35,0.65 q 5.75,2.55 11.05,4.5 l 5.1,1.65 2,0.55 1.65,0.2"
       fill="url(#gradient0)"
       fill-rule="evenodd"
       stroke="none"
       id="path8-8"
       style="fill:url(#gradient0-6)" />
    <path
       d="m -3.25,22.75 q -8.15,13.4 -13.25,22.95 -4.8,9.1 -6.85,14.3 l -0.55,1.55 0.75,-0.5 q 5.6,-3.35 12.25,-4.65 L -0.1,53.95 7.1,52.2 H 7.15 L 6.9,50.95 Q 6.1,47.7 4.7,45.95 3.55,44.4 2.1,44 l -3.35,-1.1 3.05,-1.65 3.55,-1.6 q 4.5,-1.9 9.75,-3.3 l 7.8,-1.95 -3.25,-4.35 q -4.3,-5.9 -6.8,-8.9 l -2.8,-4.1 -2.95,-4 Q 6.15,12 5.3,11.6 L 4.6,11.45 4.05,11.55 Q 3.7,11.75 3.5,11.9 l -6.75,10.85 m -21.2,43.15 -2.2,4.45 v -5.2 q 0.4,-6 1.35,-8.3 l 3.8,-8.05 q 2.85,-5.75 8.8,-16.05 L 1.1,10.05 1.2,9.9 1.35,9.75 2.9,8.75 4.6,8.45 q 1.5,0 2.8,0.9 l 2.25,2.05 3.6,5.1 1.9,2.75 6.95,9 6.05,8.2 -2.4,0.4 H 25.7 l -0.3,0.1 -1.45,0.3 -8.1,2.05 q -4.9,1.3 -9.15,3 l -0.9,0.4 1.3,1.45 q 1.25,1.6 2.15,4.15 0.95,2.75 1.1,5.25 l 0.2,2.65 -2.15,-1.15 -0.8,0.1 -5.65,1.35 -12.25,2.85 q -6.05,1.15 -11.2,4.25 -2.6,1.5 -2.95,2.3"
       fill="#998675"
       fill-rule="evenodd"
       stroke="none"
       id="path10-1" />
    <path
       d="M -3.25,22.75 3.5,11.9 q 0.2,-0.15 0.55,-0.35 l 0.55,-0.1 0.7,0.15 q 0.85,0.4 1.8,1.45 l 2.95,4 2.8,4.1 q 2.5,3 6.8,8.9 l 3.25,4.35 -7.8,1.95 q -5.25,1.4 -9.75,3.3 L 1.8,41.25 -1.25,42.9 2.1,44 q 1.45,0.4 2.6,1.95 1.4,1.75 2.2,5 L 7.15,52.2 H 7.1 l -7.2,1.75 -10.8,2.45 q -6.65,1.3 -12.25,4.65 l -0.75,0.5 0.55,-1.55 q 2.05,-5.2 6.85,-14.3 5.1,-9.55 13.25,-22.95"
       fill="#ffffff"
       fill-rule="evenodd"
       stroke="none"
       id="path12-8" />
    <path
       d="m -55.7,14.45 0.2,0.05 0.5,0.05 9,8.05 0.1,0.2 8.45,16.5 q 8.45,16.45 9.8,21.15 1.3,4.65 1.1,7.2 v 2.85 l -3,-4.95 q -3,-2.75 -5.6,-4.45 -2.25,-1.45 -4.2,-1.45 h -0.15 q -4.1,0 -9.75,1.7 l -5.9,2 -2.2,0.95 0.15,-13.35 -20.55,-4.7 0.7,-1.65 Q -73,35.35 -68.9,27.8 l 3.9,-6.65 2.05,-2.5 q 2.65,-2.4 4.85,-3.5 1.45,-0.7 2.4,-0.7 m -0.4,3.15 -0.7,0.25 q -1.55,0.75 -4.1,3 l -1.4,1.7 -1.75,2.7 -3.95,7.2 -5.55,11.7 19.35,4.4 -0.05,11.25 3.5,-1.15 q 6.6,-2 11.25,-2 h 0.2 q 2.85,0 5.75,1.95 1.2,0.8 2.4,1.9 L -31.35,60 Q -33.4,55.15 -37.2,47.1 -39.9,41.5 -47.75,25.75 l -0.65,-1.3 -7.7,-6.85"
       fill="#998675"
       fill-rule="evenodd"
       stroke="none"
       id="path14-8" />
    <path
       d="m -56.1,17.6 7.7,6.85 0.65,1.3 q 7.85,15.75 10.55,21.35 3.8,8.05 5.85,12.9 l 0.2,0.5 q -1.2,-1.1 -2.4,-1.9 -2.9,-1.95 -5.75,-1.95 h -0.2 q -4.65,0 -11.25,2 l -3.5,1.15 0.05,-11.25 -19.35,-4.4 5.55,-11.7 3.95,-7.2 1.75,-2.7 1.4,-1.7 q 2.55,-2.25 4.1,-3 l 0.7,-0.25"
       fill="#ffffff"
       fill-rule="evenodd"
       stroke="none"
       id="path16-4" />
    <path
       d="m -54.1,-122.7 q 5.65,-3.25 12.25,-3.25 6.7,0 15.05,3.15 6.75,2.45 9.95,7.05 2.2,3.2 2.2,7 0,1.95 -0.35,2.65 l -0.45,1.55 -1.45,-0.55 q -9.15,-3.3 -17.05,-3.3 -9.6,0 -23.6,6.25 -8.2,3.65 -18.5,14.25 -5.3,5.35 -9.45,10.7 v 0.05 l -1.35,1.7 -1.15,-1.85 q -2.6,-4.2 -2.6,-8.55 0,-4 2.2,-8 1.9,-3.45 5.3,-6.85 4.25,-4.25 13.75,-10.65 l 6.75,-4.8 q 5.6,-4.85 8.5,-6.55 m 36.45,13.95 q 0,-2.85 -1.7,-5.3 -2.4,-3.65 -8.5,-5.95 -7.8,-2.95 -14,-2.95 -5.8,0 -10.75,2.85 -2.5,1.45 -8.05,6.25 l -4.95,3.6 -6.55,4.45 q -8.65,6.1 -12.3,11.3 -3.15,4.4 -3.15,8.65 0,2.55 1.1,5.05 3.3,-4.1 7.75,-8.7 11.05,-11.35 20,-15.4 14.5,-6.5 24.8,-6.5 7.6,0 16.25,2.85 h 0.05 v -0.2"
       fill="#42210b"
       fill-rule="evenodd"
       stroke="none"
       id="path18-3" />
    <path
       d="m -17.7,-108.55 q -8.65,-2.85 -16.25,-2.85 -10.3,0 -24.8,6.5 -8.95,4.05 -20,15.4 -4.45,4.6 -7.75,8.7 -1.1,-2.5 -1.1,-5.05 0,-4.25 3.15,-8.65 3.65,-5.2 12.3,-11.3 l 6.55,-4.45 4.95,-3.6 q 5.55,-4.8 8.05,-6.25 4.95,-2.85 10.75,-2.85 6.2,0 14,2.95 6.1,2.3 8.5,5.95 1.7,2.45 1.7,5.3 l -0.05,0.2"
       fill="url(#gradient1)"
       fill-rule="evenodd"
       stroke="none"
       id="path20-9"
       style="fill:url(#gradient1-6)" />
    <path
       d="m 29.2,-35.7 q 2.45,1.8 3.45,3.9 0.8,1.6 0.8,3.65 l -0.3,2.45 q -1.25,5.4 -3.55,9.6 -2.85,5.35 -7.2,8.4 l -5.55,4.1 q -2.9,2.05 -4.9,2.9 Q 10.1,0 8.6,0 H 8.25 Q 7.45,-0.1 6.9,-0.55 l -0.65,-1 q -0.3,-0.85 -0.3,-2.1 0,-1.2 0.35,-3.55 l 0.85,-4.4 2.6,-10 3.85,-12.4 0.1,-0.2 1.3,-1.5 q 1.45,-1.65 3.3,-2.6 1.7,-0.8 3.3,-0.8 1.55,0 2.95,0.7 2.95,1.45 4.65,2.7 m 1.25,7.55 q 0,-1.35 -0.5,-2.35 l -1.45,-1.9 q -1.55,-1.5 -5.25,-3.3 l -1.65,-0.4 -1.9,0.45 -1.75,1.2 -1.6,1.85 -0.85,2.55 -2.15,6.9 q -3.25,11.1 -4.1,16.4 -0.3,1.9 -0.3,3.1 L 9,-3 10.85,-3.5 13.55,-5 q 1.95,-1.3 7.15,-5.15 3.6,-2.5 6.3,-7.4 2.1,-3.9 3.25,-8.85 l 0.2,-1.75"
       fill="#84634d"
       fill-rule="evenodd"
       stroke="none"
       id="path22-9" />
    <path
       d="m 30.45,-28.15 -0.2,1.75 q -1.15,4.95 -3.25,8.85 -2.7,4.9 -6.3,7.4 Q 15.5,-6.3 13.55,-5 L 10.85,-3.5 9,-3 8.95,-3.65 q 0,-1.2 0.3,-3.1 0.85,-5.3 4.1,-16.4 l 2.15,-6.9 0.85,-2.55 1.6,-1.85 1.75,-1.2 1.9,-0.45 1.65,0.4 q 3.7,1.8 5.25,3.3 l 1.45,1.9 q 0.5,1 0.5,2.35"
       fill="url(#gradient2)"
       fill-rule="evenodd"
       stroke="none"
       id="path24-1"
       style="fill:url(#gradient2-4)" />
    <path
       d="m -79.95,11.7 q 2,-0.65 4.05,-4.05 1.65,-2.7 -2.9,-5.55 -1.85,-1.1 -8.45,-3.95 -4.8,-2 -3.4,-8.1 l 7.2,1.9 -1.45,2.25 q -0.65,2.65 3.2,4.35 6.25,2.8 7.1,6.55 -0.6,5.3 -4.2,6.35 l -1.15,0.25 -2.35,-0.25 1.05,0.2 1.3,0.05"
       fill="#754c24"
       fill-rule="evenodd"
       stroke="none"
       id="path26-0" />
    <path
       d="M -89.35,-8.05 V -8 q 0,1.55 0.55,2.7 0.65,1.4 2.15,2.1 l 0.8,0.35 q -0.65,-1.05 -0.65,-2.2 l 0.35,-1.75 0.2,-0.35 -3.4,-0.9 m 14.75,10 q 1.45,1.9 1.45,2.85 l 0.1,0.25 -0.05,0.25 q -0.35,3.25 -1.9,5.3 -1.35,1.65 -3.4,2.3 l -1.85,0.3 -0.75,0.05 -2,-0.45 1.15,-2.75 h 0.05 l 1.25,0.15 1.05,-0.55 q 1.05,-0.7 2.35,-2.75 l 0.2,-0.65 -0.15,-0.6 -0.65,-0.85 q -0.9,-0.9 -2.75,-1.95 -1.5,-0.8 -7.3,-3.3 -2.6,-1.1 -3.75,-3.6 -0.8,-1.7 -0.8,-3.95 l 0.25,-2.25 0.35,-1.5 11.45,2.95 -2.15,1.85 -0.05,0.1 -0.25,0.25 -0.6,0.95 -0.15,0.6 0.35,0.85 2.1,1.4 q 4.1,1.8 6.45,4.75"
       fill="#42210b"
       fill-rule="evenodd"
       stroke="none"
       id="path28-6" />
    <path
       d="m -68.2,-5.35 q 0,-3.9 -2.2,-8.5 -2.9,-6.15 -9.45,-12.75 l -0.45,-0.2 -1.85,-0.65 q -2.95,-0.95 -5.4,-0.95 l -2.65,0.45 q -1.1,0.5 -1.65,1.4 -1.25,2.05 -1.25,5.05 -0.05,3.25 1.6,6.6 1.8,3.4 4.65,5.15 8.1,5.1 15.6,7.4 l 2.45,0.6 0.1,-0.25 q 0.5,-1.4 0.5,-3.35 m 0.5,-9.8 q 2.5,5.2 2.5,9.8 0,3.7 -1.4,5.95 l -0.45,0.7 h -0.9 q -1.65,0 -4.2,-0.8 -2.8,-0.85 -5.25,-2 -6,-2.55 -11.05,-5.75 -3.6,-2.2 -5.7,-6.3 -1.95,-3.75 -1.95,-7.95 0,-3.75 1.65,-6.55 1.05,-1.85 3.1,-2.7 l 3.8,-0.65 q 2.8,0 6.3,1.1 l 2.9,1.05 0.25,0.15 0.2,0.2 q 7.15,7.2 10.2,13.75"
       fill="#84634d"
       fill-rule="evenodd"
       stroke="none"
       id="path30-0" />
    <path
       d="m -68.2,-5.35 q 0,1.95 -0.5,3.35 l -0.1,0.25 -2.45,-0.6 q -7.5,-2.3 -15.6,-7.4 -2.85,-1.75 -4.65,-5.15 -1.65,-3.35 -1.6,-6.6 0,-3 1.25,-5.05 0.55,-0.9 1.65,-1.4 l 2.65,-0.45 q 2.45,0 5.4,0.95 l 1.85,0.65 0.45,0.2 q 6.55,6.6 9.45,12.75 2.2,4.6 2.2,8.5"
       fill="url(#gradient3)"
       fill-rule="evenodd"
       stroke="none"
       id="path32-6"
       style="fill:url(#gradient3-0)" />
    <path
       d="m 6.6,-71.05 q 3.4,4.85 5.95,11.65 2.65,7.25 5.1,19.7 l 0.05,0.15 -0.05,0.15 q -0.4,16.25 -4.15,31.1 -2.15,8.45 -5,13.85 -4.45,8.5 -12.15,15.45 -6.95,6.3 -14.45,9.4 -4.9,2.05 -8.75,2.05 H -26.9 Q -33.6,32.4 -42.1,27.9 -50,23.7 -61,14.85 q -8.65,-7 -14.05,-20.25 -3.85,-9.3 -5.85,-20.85 l -1.35,-8.25 -0.2,-0.75 -0.5,-3.1 q -0.35,-2.6 -0.35,-5.75 0,-10.1 3.45,-18.65 4.85,-11.75 15.65,-17.85 8.5,-4.85 20.7,-5.85 l 11.1,-0.5 q 14.75,0 24.25,4.05 9.15,3.8 14.75,11.85 m 8.05,31.9 v -0.25 q -2.7,-13.45 -5.75,-21 -3.7,-9.25 -9.8,-14.55 -4.5,-3.85 -10.45,-5.95 -8.45,-3.05 -21.05,-3.05 l -10.85,0.5 q -11.45,0.9 -19.5,5.45 -6.8,3.85 -11.1,10.3 -6.45,9.75 -6.45,23.6 0,4.2 0.55,7.15 l 1,5.5 1.55,8.65 q 2.9,13.3 7.8,22.4 4.35,8.15 10.3,12.9 10.8,8.75 18.4,12.75 7.8,4.15 13.8,4.2 h 0.05 q 3.35,0 7.6,-1.8 4.55,-1.9 9.05,-5.2 10.5,-7.6 16.05,-18.3 4.8,-8.9 7.2,-25.8 1.35,-9.2 1.6,-17.5"
       fill="#84634d"
       fill-rule="evenodd"
       stroke="none"
       id="path34-4" />
    <path
       d="m 14.65,-39.15 q -0.25,8.3 -1.6,17.5 -2.4,16.9 -7.2,25.8 -5.55,10.7 -16.05,18.3 -4.5,3.3 -9.05,5.2 -4.25,1.8 -7.6,1.8 h -0.05 q -6,-0.05 -13.8,-4.2 -7.6,-4 -18.4,-12.75 -5.95,-4.75 -10.3,-12.9 -4.9,-9.1 -7.8,-22.4 l -1.55,-8.65 -1,-5.5 q -0.55,-2.95 -0.55,-7.15 0,-13.85 6.45,-23.6 4.3,-6.45 11.1,-10.3 8.05,-4.55 19.5,-5.45 l 10.85,-0.5 q 12.6,0 21.05,3.05 5.95,2.1 10.45,5.95 6.1,5.3 9.8,14.55 3.05,7.55 5.75,21 v 0.25"
       fill="url(#gradient4)"
       fill-rule="evenodd"
       stroke="none"
       id="path36-3"
       style="fill:url(#gradient4-6)" />
    <path
       d="m -7.95,-39.1 q -7.95,-1.55 -8.3,-2.25 -0.5,-1.1 0.95,-1.65 l 4.2,-0.1 6.15,1.5 9,3.05 q 3,1.35 2.3,2.1 l -1.9,-0.2 -3.05,-0.85 -9.35,-1.6"
       fill="#603813"
       fill-rule="evenodd"
       stroke="none"
       id="path38-6" />
    <path
       d="m -67.3,-37.2 17.6,-5.85 3.8,0.15 q 1.95,0.6 2.5,1.95 0.45,1.05 -3.55,1.45 l -5.7,0.55 q -1.45,0.45 -9.3,1.8 l -3.75,1.05 -2.05,-0.05 q -0.2,-0.7 0.45,-1.05"
       fill="#603813"
       fill-rule="evenodd"
       stroke="none"
       id="path40-5" />
    <path
       d="m -21.1,-118.35 -2.75,-1.05 2.45,-1.6 q 0.1,0 2.65,-1.25 3.2,-1.25 6.4,-1.25 2.9,0 5.4,0.95 6.2,2.45 10.1,5 0.95,-0.4 1.85,-0.4 2.05,0 4.25,1.6 l 1.85,1.55 2.4,2.55 q 3,3.35 5.85,7.75 7.45,11.9 7.5,22.9 0,3.7 -0.9,7.2 l -0.25,2 -2.9,0.4 -0.05,-0.15 -1,-2.2 -3.45,-5.85 q -6.25,-9.35 -14.6,-14.55 -7.25,-4.55 -15.9,-5.55 l -0.45,-0.05 -5.1,-4.1 0.2,-0.9 v -0.05 l 0.05,-0.25 0.1,-0.9 0.2,-3 q 0,-2.05 -0.45,-4.1 -0.5,-2.1 -1.6,-3.35 -0.75,-0.9 -1.85,-1.35 m 20.7,2.2 q -3.3,-1.9 -7.65,-3.6 -2.05,-0.75 -4.3,-0.75 -2.5,-0.05 -5.15,0.95 l 0.5,0.55 q 1,1.15 1.8,3.05 1,2.7 1,6.4 0,2.1 -0.25,3.9 l 3,2.4 q 9.05,1.1 16.7,5.95 6.35,3.9 11.65,10.25 4.05,4.8 6.65,9.5 l 0.3,-4.05 q 0,-8.95 -5.7,-19 Q 14.1,-107.75 9,-112.65 L 7.55,-113.9 Q 6,-114.95 5,-114.95 l -0.6,0.15 -0.2,0.1 -0.85,1 -1.1,-0.8 H 2.2 v -0.05 l -0.1,-0.05 -2.5,-1.55"
       fill="#42210b"
       fill-rule="evenodd"
       stroke="none"
       id="path42-4" />
    <path
       d="m -0.4,-116.15 2.5,1.55 0.1,0.05 v 0.05 h 0.05 l 1.1,0.8 0.85,-1 0.2,-0.1 0.6,-0.15 q 1,0 2.55,1.05 l 1.45,1.25 q 5.1,4.9 9.15,12.05 5.7,10.05 5.7,19 l -0.3,4.05 q -2.6,-4.7 -6.65,-9.5 -5.3,-6.35 -11.65,-10.25 -7.65,-4.85 -16.7,-5.95 l -3,-2.4 q 0.25,-1.8 0.25,-3.9 0,-3.7 -1,-6.4 -0.8,-1.9 -1.8,-3.05 l -0.5,-0.55 q 2.65,-1 5.15,-0.95 2.25,0 4.3,0.75 4.35,1.7 7.65,3.6"
       fill="url(#gradient5)"
       fill-rule="evenodd"
       stroke="none"
       id="path44-8"
       style="fill:url(#gradient5-6)" />
    <path
       d="m -11.8,-95.5 q -4.9,-1.8 -10,-1.8 l -5.65,0.6 -2.2,0.65 -1.5,-2.6 1.95,-1.05 2.5,-0.9 6.05,-1.5 5.15,-1 q -3.3,-3.45 -6.4,-5.2 -6.05,-3.5 -15.25,-3.7 l -1.65,-0.05 q -15.6,0 -27.1,8.25 -7.95,5.8 -16.7,18.65 -5.1,7.5 -7.3,17.45 l -0.75,4.3 2.05,-3.1 0.8,-1.5 q 8.85,-15.55 25.75,-27.15 l 0.15,-0.1 1.85,2.35 -0.15,0.15 -0.5,0.4 -1.75,1.65 -6.05,5.75 q -9.75,9.65 -15.6,17.35 l -1.95,2.7 q -4.75,8.9 -6.85,19.2 -0.6,3 -0.6,5.85 0,4.6 1.35,7.4 l 2.8,-0.6 q 0.2,-4.05 0.75,-7.8 l -0.05,-2.05 q 0,-10.65 4,-19.1 4.85,-10.2 15.2,-16.9 l 0.6,-0.45 0.05,0.05 v -0.05 l 1.6,2.5 -0.15,0.1 -0.55,0.4 -2,1.8 q -3.2,3 -6.3,7.7 -7.25,11.15 -9.4,26.3 0.25,6 1.75,12.25 l 0.6,2.25 q 1,-6.8 3.75,-15.6 h -0.05 q 2.15,-7.2 9.25,-15.6 l 1.65,-2.3 q 8.8,-10 16.45,-16.6 12.05,-10.45 22.95,-14.35 l 1.25,2.7 -3.95,2.55 q -4.8,3.05 -9.9,6.8 -15.85,11.65 -24.8,21.6 l -1.2,1.4 q -1.7,2.95 -2.6,7.65 -1,5.25 -1,12.2 l 0.25,6.8 2.4,-2.45 9.7,-8.55 q 12.85,-10.65 25.65,-19.35 10.1,-6.9 17.9,-20.95 3.85,-6.9 5.7,-12.1 l -0.75,0.15 -2.85,0.8 -4.5,1.5 -5.55,2.05 3.55,-4.3 1.65,-1.35 2,-0.95 4.45,-1.15 h 0.2 L -11.8,-95.5 M -37.05,-115 q 9.8,0.2 16.65,4.1 4.3,2.4 8.95,7.8 l 1.75,2.05 -6.45,1.1 -0.45,0.1 q 5.7,0.9 11.05,3.95 l 4.5,2.5 -5.35,0.3 q -2,6.2 -6.15,13.75 -8.4,15.3 -19.2,22.65 -18.15,12.35 -31.85,24.75 l -6.1,5.95 -1.3,1.8 -2.2,4.9 -0.65,-5.35 q -0.6,-4.8 -0.6,-10.95 0,-6.75 0.95,-12.15 -2.2,3.65 -3.15,6.95 -4.25,13.75 -4.25,22.3 v 0.65 l -2.95,0.3 -0.85,-2.65 -1.65,-5.65 -1,-4.55 -6.25,1.3 -0.6,-0.85 q -2.3,-3.5 -2.3,-9.9 0,-3.35 0.65,-6.45 1.05,-5.05 2.65,-9.7 l -0.95,-0.15 v -0.7 q 0,-5.5 1.3,-11.45 2.3,-10.5 7.75,-18.5 8.9,-13.2 17.45,-19.4 12.1,-8.85 28.85,-8.85 l 1.75,0.05"
       fill="#42210b"
       fill-rule="evenodd"
       stroke="none"
       id="path46-7" />
    <path
       d="m -68.85,-79.35 -0.6,0.45 q -10.35,6.7 -15.2,16.9 -4,8.45 -4,19.1 l 0.05,2.05 q -0.55,3.75 -0.75,7.8 l -2.8,0.6 q -1.35,-2.8 -1.35,-7.4 0,-2.85 0.6,-5.85 2.1,-10.3 6.85,-19.2 l 1.95,-2.7 q 5.85,-7.7 15.6,-17.35 l 6.05,-5.75 1.75,-1.65 0.5,-0.4 0.15,-0.15 -1.85,-2.35 -0.15,0.1 q -16.9,11.6 -25.75,27.15 l -0.8,1.5 -2.05,3.1 0.75,-4.3 q 2.2,-9.95 7.3,-17.45 8.75,-12.85 16.7,-18.65 11.5,-8.25 27.1,-8.25 l 1.65,0.05 q 9.2,0.2 15.25,3.7 3.1,1.75 6.4,5.2 l -5.15,1 -6.05,1.5 -2.5,0.9 -1.95,1.05 1.5,2.6 2.2,-0.65 5.65,-0.6 q 5.1,0 10,1.8 l -0.05,0.05 -4.45,1.15 -2,0.95 -1.65,1.35 -3.55,4.3 5.55,-2.05 4.5,-1.5 2.85,-0.8 0.75,-0.15 q -1.85,5.2 -5.7,12.1 -7.8,14.05 -17.9,20.95 -12.8,8.7 -25.65,19.35 l -9.7,8.55 -2.4,2.45 -0.25,-6.8 q 0,-6.95 1,-12.2 0.9,-4.7 2.6,-7.65 l 1.2,-1.4 q 8.95,-9.95 24.8,-21.6 5.1,-3.75 9.9,-6.8 l 3.95,-2.55 -1.25,-2.7 q -10.9,3.9 -22.95,14.35 -7.65,6.6 -16.45,16.6 l -1.65,2.3 q -7.1,8.4 -9.25,15.6 h 0.05 q -2.75,8.8 -3.75,15.6 l -0.6,-2.25 q -1.5,-6.25 -1.75,-12.25 2.15,-15.15 9.4,-26.3 3.1,-4.7 6.3,-7.7 l 2,-1.8 0.55,-0.4 0.15,-0.1 -1.6,-2.5 h -0.05"
       fill="url(#gradient6)"
       fill-rule="evenodd"
       stroke="none"
       id="path48-5"
       style="fill:url(#gradient6-0)" />
    <path
       d="m -10.55,-103.15 5.15,-0.15 q 9.3,0 15.95,4 10,6 15,20.85 4.05,11.75 4.9,29.25 l 0.1,4.35 q 0,15.55 -5.6,25.85 -2.85,5.25 -5.9,7.5 l -3.75,2.7 1.45,-4.4 0.75,-4 0.2,-5.1 q 0.05,-7.1 -1.2,-16.1 -12.3,-10.4 -22.45,-26.45 -3.2,-5.1 -5.75,-10.1 l -1.95,-4.05 -0.4,-0.9 0.6,-0.7 q 2.4,-2.75 3.45,-6.15 0.8,-2.65 0.8,-5.15 l -0.15,-1.85 -12.4,-6.7 9.65,-2.9 0.4,0.1 1.15,0.1 m 0,3 -1.4,-0.1 -2,0.6 7.3,3.95 0.15,0.65 0.3,3.15 q 0,3.05 -0.9,6 -1.15,3.55 -3.45,6.5 l 1.5,3.1 q 2.45,4.75 5.65,9.85 9.95,15.85 22.25,26.05 l 0.45,0.4 0.05,0.55 0.7,5.5 q 0.65,6.55 0.65,11.65 l -0.15,4.7 1.75,-2.85 q 5.25,-9.6 5.25,-24.4 l -0.1,-4.2 q -0.9,-19 -5.65,-31 -3.85,-9.8 -10.25,-14.95 -3.4,-2.65 -7.6,-4 -4.15,-1.3 -9.35,-1.3 l -5.15,0.15"
       fill="#42210b"
       fill-rule="evenodd"
       stroke="none"
       id="path50-6" />
    <path
       d="m -10.55,-100.15 5.15,-0.15 q 5.2,0 9.35,1.3 4.2,1.35 7.6,4 6.4,5.15 10.25,14.95 4.75,12 5.65,31 l 0.1,4.2 q 0,14.8 -5.25,24.4 l -1.75,2.85 0.15,-4.7 q 0,-5.1 -0.65,-11.65 l -0.7,-5.5 L 19.3,-40 18.85,-40.4 Q 6.55,-50.6 -3.4,-66.45 q -3.2,-5.1 -5.65,-9.85 l -1.5,-3.1 q 2.3,-2.95 3.45,-6.5 0.9,-2.95 0.9,-6 l -0.3,-3.15 -0.15,-0.65 -7.3,-3.95 2,-0.6 1.4,0.1"
       fill="url(#gradient7)"
       fill-rule="evenodd"
       stroke="none"
       id="path52-9"
       style="fill:url(#gradient7-9)" />
    <path
       d="m -6.6,-88.5 1.55,-2.55 2.5,1.7 5.9,4.9 q 9.2,8.7 12.95,18.6 7.75,20.7 7.75,34.95 0,6.9 -1.65,12.95 l -2.9,-0.8 q 1.55,-5.5 1.55,-12.15 0,-13.8 -7.55,-33.85 -3.5,-9.15 -11.8,-17.1 -2.65,-2.6 -5.55,-4.75 l -2.7,-1.85 -0.05,-0.05"
       fill="#42210b"
       fill-rule="evenodd"
       stroke="none"
       id="path54-9" />
    <path
       d="m -13.1,-108.2 -1.45,0.05 -0.15,-3 1.6,-0.05 q 8.2,0 16.15,2.2 13.35,3.8 20.7,12.6 l -2.35,1.95 q -6.75,-8.2 -19.15,-11.65 -7.55,-2.1 -15.35,-2.1"
       fill="#42210b"
       fill-rule="evenodd"
       stroke="none"
       id="path56-4" />
    <path
       d="m -14.55,-116.6 q 3.85,-3.05 9.3,-3.05 3.2,0 6.7,1.05 l -0.85,2.9 q -3.05,-0.95 -5.85,-0.95 -4.25,0 -7.25,2.3 l -2.25,2.4 -2.6,-1.45 2.8,-3.2"
       fill="#42210b"
       fill-rule="evenodd"
       stroke="none"
       id="path58-8" />
    <path
       d="m -41.25,12.1 q 13.45,-5 26.85,0 -14.4,-11.15 -26.85,0 12.2,-14.65 26.85,0 -14,-3.2 -26.85,0"
       fill="#c1272d"
       fill-rule="evenodd"
       stroke="none"
       id="path60-0" />
    <path
       d="m -41.25,12.1 q 13.45,-5 26.85,0 -14.4,-11.15 -26.85,0"
       fill="none"
       stroke="#c1272d"
       stroke-linecap="round"
       stroke-linejoin="round"
       stroke-width="1"
       id="path62-1" />
    <path
       d="m -41.25,12.1 q 12.2,-14.65 26.85,0 -14,-3.2 -26.85,0 z"
       fill="none"
       stroke="#c1272d"
       stroke-linecap="round"
       stroke-linejoin="round"
       stroke-width="1"
       id="path64" />
  </g>
  <defs
     id="defs106">
    <linearGradient
       id="gradient0"
       x1="-819.2"
       x2="819.2"
       gradientTransform="matrix(0 -.0166 1 0 -297 -35.45)"
       gradientUnits="userSpaceOnUse">
      <stop
         stop-color="#fff"
         offset="0"
         id="stop66" />
      <stop
         stop-color="#fbc7c3"
         offset="1"
         id="stop68" />
    </linearGradient>
    <linearGradient
       id="gradient1"
       x1="-819.2"
       x2="819.2"
       gradientTransform="matrix(.0392 -.0106 .0137 .0506 43.7 -169.45)"
       gradientUnits="userSpaceOnUse">
      <stop
         stop-color="#754c24"
         offset="0"
         id="stop71" />
      <stop
         stop-color="#300"
         offset="1"
         id="stop73" />
    </linearGradient>
    <linearGradient
       id="gradient2"
       x1="-819.2"
       x2="819.2"
       gradientTransform="matrix(-.0189 -.0051 .2588 -.9659 24.1 182.65)"
       gradientUnits="userSpaceOnUse">
      <stop
         stop-color="#fff"
         offset="0"
         id="stop76" />
      <stop
         stop-color="#fbc7c3"
         offset="1"
         id="stop78" />
    </linearGradient>
    <linearGradient
       id="gradient3"
       x1="-819.2"
       x2="819.2"
       gradientTransform="matrix(.0142 -.0082 .5 .866 -148.6 -335.9)"
       gradientUnits="userSpaceOnUse">
      <stop
         stop-color="#fff"
         offset="0"
         id="stop81" />
      <stop
         stop-color="#fbc7c3"
         offset="1"
         id="stop83" />
    </linearGradient>
    <linearGradient
       id="gradient4"
       x1="-819.2"
       x2="819.2"
       gradientTransform="matrix(0 -.0861 1 0 -252.15 -107.4)"
       gradientUnits="userSpaceOnUse">
      <stop
         stop-color="#fff"
         offset="0"
         id="stop86" />
      <stop
         stop-color="#fbc7c3"
         offset="1"
         id="stop88" />
    </linearGradient>
    <linearGradient
       id="gradient5"
       x1="-819.2"
       x2="819.2"
       gradientTransform="matrix(-.02 -.016 .6233 -.7799 -55.65 -22.75)"
       gradientUnits="userSpaceOnUse">
      <stop
         stop-color="#754c24"
         offset="0"
         id="stop91" />
      <stop
         stop-color="#300"
         offset="1"
         id="stop93" />
    </linearGradient>
    <linearGradient
       id="gradient6"
       x1="-819.2"
       x2="819.2"
       gradientTransform="matrix(.0505 -.0292 .0262 .0455 42.85 -176.85)"
       gradientUnits="userSpaceOnUse">
      <stop
         stop-color="#754c24"
         offset="0"
         id="stop96" />
      <stop
         stop-color="#300"
         offset="1"
         id="stop98" />
    </linearGradient>
    <linearGradient
       id="gradient7"
       x1="-819.2"
       x2="819.2"
       gradientTransform="matrix(-.0208 -.0291 .8118 -.5813 -119.05 -11.65)"
       gradientUnits="userSpaceOnUse">
      <stop
         stop-color="#754c24"
         offset="0"
         id="stop101" />
      <stop
         stop-color="#300"
         offset="1"
         id="stop103" />
    </linearGradient>
    <linearGradient
       gradientTransform="matrix(0,-0.0166,1,0,-373.25,38.55)"
       gradientUnits="userSpaceOnUse"
       id="gradient0-6"
       spreadMethod="pad"
       x1="-819.20001"
       x2="819.20001">
      <stop
         offset="0.0"
         stop-color="#ffffff"
         id="stop68-4" />
      <stop
         offset="1.0"
         stop-color="#fbc7c3"
         id="stop70" />
    </linearGradient>
    <linearGradient
       gradientTransform="matrix(0.0392,-0.0106,0.0137,0.0506,-32.55,-95.45)"
       gradientUnits="userSpaceOnUse"
       id="gradient1-6"
       spreadMethod="pad"
       x1="-819.20001"
       x2="819.20001">
      <stop
         offset="0.0"
         stop-color="#754c24"
         id="stop73-9" />
      <stop
         offset="1.0"
         stop-color="#330000"
         id="stop75" />
    </linearGradient>
    <linearGradient
       gradientTransform="matrix(-0.0189,-0.0051,0.2588,-0.9659,-52.15,256.65)"
       gradientUnits="userSpaceOnUse"
       id="gradient2-4"
       spreadMethod="pad"
       x1="-819.20001"
       x2="819.20001">
      <stop
         offset="0.0"
         stop-color="#ffffff"
         id="stop78-7" />
      <stop
         offset="1.0"
         stop-color="#fbc7c3"
         id="stop80" />
    </linearGradient>
    <linearGradient
       gradientTransform="matrix(0.0142,-0.0082,0.5,0.866,-224.85,-261.9)"
       gradientUnits="userSpaceOnUse"
       id="gradient3-0"
       spreadMethod="pad"
       x1="-819.20001"
       x2="819.20001">
      <stop
         offset="0.0"
         stop-color="#ffffff"
         id="stop83-0" />
      <stop
         offset="1.0"
         stop-color="#fbc7c3"
         id="stop85" />
    </linearGradient>
    <linearGradient
       gradientTransform="matrix(0,-0.0861,1,0,-328.4,-33.4)"
       gradientUnits="userSpaceOnUse"
       id="gradient4-6"
       spreadMethod="pad"
       x1="-819.20001"
       x2="819.20001">
      <stop
         offset="0.0"
         stop-color="#ffffff"
         id="stop88-3" />
      <stop
         offset="1.0"
         stop-color="#fbc7c3"
         id="stop90" />
    </linearGradient>
    <linearGradient
       gradientTransform="matrix(-0.02,-0.016,0.6233,-0.7799,-131.9,51.25)"
       gradientUnits="userSpaceOnUse"
       id="gradient5-6"
       spreadMethod="pad"
       x1="-819.20001"
       x2="819.20001">
      <stop
         offset="0.0"
         stop-color="#754c24"
         id="stop93-6" />
      <stop
         offset="1.0"
         stop-color="#330000"
         id="stop95" />
    </linearGradient>
    <linearGradient
       gradientTransform="matrix(0.0505,-0.0292,0.0262,0.0455,-33.4,-102.85)"
       gradientUnits="userSpaceOnUse"
       id="gradient6-0"
       spreadMethod="pad"
       x1="-819.20001"
       x2="819.20001">
      <stop
         offset="0.0"
         stop-color="#754c24"
         id="stop98-5" />
      <stop
         offset="1.0"
         stop-color="#330000"
         id="stop100" />
    </linearGradient>
    <linearGradient
       gradientTransform="matrix(-0.0208,-0.0291,0.8118,-0.5813,-195.3,62.35)"
       gradientUnits="userSpaceOnUse"
       id="gradient7-9"
       spreadMethod="pad"
       x1="-819.20001"
       x2="819.20001">
      <stop
         offset="0.0"
         stop-color="#754c24"
         id="stop103-0" />
      <stop
         offset="1.0"
         stop-color="#330000"
         id="stop105" />
    </linearGradient>
  </defs>
</svg>
