<svg version="1.1" viewBox="0 0 434.05 155.05" xmlns="http://www.w3.org/2000/svg">
 <g transform="translate(216.55 97.5)">
  <path d="m153.1-61.8 6.5-21.7 34.4 7.8-7.5 22.9 17 4.5-6.8 25.2-16.9-4.5-7.2 26.9q-1.3 4.8-0.8 6.4 0.4 1.9 3.5 2.7l11.4 0.8-4.2 24.5q-13.4-0.8-23.3-3.5-11.8-3.1-16.6-7.7-2-1.7-3.3-3.8-2.3-3.6-2.8-8.1-1-6.8 2.7-20.7l7.1-26.5-10.9-2.9 6.8-25.2 10.9 2.9m-22.5 2.6 0.2 0.6-6.3 25.8q-6.9-1.2-9.9-0.8-5 0.7-7.3 3.3-3.7 9.5-0.9 28.7l4 29-33.6 4.8-13-84.5 32.5-4.6 1.9 13.3q0.2-8.2 4.6-12.4 4.3-4.3 11.5-5.3 6.7-1 16.3 2.7l-0.1-0.7 0.1 0.1m-76 9.9q4 2.3 6.3 9 2.7 6.8 2.7 13.1v36q0 5.8 0.4 9 0.7 2.5 5.6 10.3h-34.4l-3.1-5.8q-0.5-1.8-0.5-4.1-4 5.4-10.8 8.1-8.5 3.6-19.8 3.6l-9.1-0.7q-20.3-6.3-20.3-29.1 0-8.5 5.8-13.9 6.1-4.9 19.1-7.6l23-4.9 9.9-3.2q0-4-1.8-5.8-2.3-2.3-7.7-2.3-7.2 0-10.8 2.3-2.2 1.8-4.5 7.6l-32.1-3.1 0.3-5.1q1.7-6.2 4.4-9.8 3.1-4.9 9.9-8.5 4.5-2.3 12.1-3.6 7.7-1.4 16.7-1.4l23.4 1.4q9 1.8 15.3 8.5m-25.2 38.3q-4.5 2.2-13.1 4-7.6 2.3-9.9 4.5-2.2 2.3-2.2 5 0 3.1 2.2 4.9 1.8 1.8 6.3 1.8 5 0 9-2.2 4.1-2.3 5.9-5.9 1.8-3.1 1.8-8.5v-3.6m-62-19.8v-0.5h-16.7v27.9q0 5 0.9 6.3 0.9 1.8 4.1 1.8 2.7 0 9.4-1.8h0.8v25q-11.1 2-20.1 2-12.2 0-18-3.1-6.3-3.2-9-9.9-2.7-6.3-2.7-20.7v-27.5h-11.2v-26.1h11.2v-25.1h34.6v25.1h17.6v22.1l0.1-0.6-0.3 5.1h-0.7m-129.7-45.9q21.3-5.8 35.3-0.6 12.2 4.7 19.4 20.4h0.1l0.9 3.4-0.4 0.4-0.1-0.2-33.3 11.2q-3.5-7.9-7.8-10-4.8-2-11.3-0.2-5.2 1.3-7.2 4.2t-1.3 5.5q0.5 2.2 3.6 3.2 2.2 1.3 11 0.8 23.8-1.3 35.2 1.3 11 2.6 17.8 8.8l0.7 0.7q6.2 6.3 8.6 14.9 2.5 9.4 0.4 18.5l-1 3.6q-3.7 10.7-13.2 18.4-9.7 7.7-26.2 12.2-28.7 7.6-42.9-0.2-13.9-8.4-20.6-26.6l34.6-11.6q3.6 8.3 7.8 11.4 6.4 4.8 15.1 2.5 6.9-1.9 9.6-5.8 2.6-4 1.6-7.9-1-3.5-5.2-5.6-4.3-2.1-19-1.4-23.1 1-36.5-7.5-11.2-3.6-14.9-17.4-2.4-8.8 0.7-18t11.9-16.6q8.8-7.1 26.6-11.8" fill-rule="evenodd"/>
  <path d="m153.1-61.8 6.5-21.7 34.4 7.8-7.5 22.9 17 4.5-6.8 25.2-16.9-4.5-7.2 26.9q-1.3 4.8-0.8 6.4 0.4 1.9 3.5 2.7l11.4 0.8-4.2 24.5q-13.4-0.8-23.3-3.5-11.8-3.1-16.6-7.7-2-1.7-3.3-3.8-2.3-3.6-2.8-8.1-1-6.8 2.7-20.7l7.1-26.5-10.9-2.9 6.8-25.2 10.9 2.9m-22.5 2.6 0.2 0.6-6.3 25.8q-6.9-1.2-9.9-0.8-5 0.7-7.3 3.3-3.7 9.5-0.9 28.7l4 29-33.6 4.8-13-84.5 32.5-4.6 1.9 13.3q0.2-8.2 4.6-12.4 4.3-4.3 11.5-5.3 6.7-1 16.3 2.7l-0.1-0.7 0.1 0.1m-76 9.9q4 2.3 6.3 9 2.7 6.8 2.7 13.1v36q0 5.8 0.4 9 0.7 2.5 5.6 10.3h-34.4l-3.1-5.8q-0.5-1.8-0.5-4.1-4 5.4-10.8 8.1-8.5 3.6-19.8 3.6l-9.1-0.7q-20.3-6.3-20.3-29.1 0-8.5 5.8-13.9 6.1-4.9 19.1-7.6l23-4.9 9.9-3.2q0-4-1.8-5.8-2.3-2.3-7.7-2.3-7.2 0-10.8 2.3-2.2 1.8-4.5 7.6l-32.1-3.1 0.3-5.1q1.7-6.2 4.4-9.8 3.1-4.9 9.9-8.5 4.5-2.3 12.1-3.6 7.7-1.4 16.7-1.4l23.4 1.4q9 1.8 15.3 8.5m-25.2 38.3q-4.5 2.2-13.1 4-7.6 2.3-9.9 4.5-2.2 2.3-2.2 5 0 3.1 2.2 4.9 1.8 1.8 6.3 1.8 5 0 9-2.2 4.1-2.3 5.9-5.9 1.8-3.1 1.8-8.5v-3.6m-62-19.8v-0.5h-16.7v27.9q0 5 0.9 6.3 0.9 1.8 4.1 1.8 2.7 0 9.4-1.8h0.8v25q-11.1 2-20.1 2-12.2 0-18-3.1-6.3-3.2-9-9.9-2.7-6.3-2.7-20.7v-27.5h-11.2v-26.1h11.2v-25.1h34.6v25.1h17.6v22.1l0.1-0.6-0.3 5.1h-0.7m-129.7-45.9q21.3-5.8 35.3-0.6 12.2 4.7 19.4 20.4h0.1l0.9 3.4-0.4 0.4-0.1-0.2-33.3 11.2q-3.5-7.9-7.8-10-4.8-2-11.3-0.2-5.2 1.3-7.2 4.2t-1.3 5.5q0.5 2.2 3.6 3.2 2.2 1.3 11 0.8 23.8-1.3 35.2 1.3 11 2.6 17.8 8.8l0.7 0.7q6.2 6.3 8.6 14.9 2.5 9.4 0.4 18.5l-1 3.6q-3.7 10.7-13.2 18.4-9.7 7.7-26.2 12.2-28.7 7.6-42.9-0.2-13.9-8.4-20.6-26.6l34.6-11.6q3.6 8.3 7.8 11.4 6.4 4.8 15.1 2.5 6.9-1.9 9.6-5.8 2.6-4 1.6-7.9-1-3.5-5.2-5.6-4.3-2.1-19-1.4-23.1 1-36.5-7.5-11.2-3.6-14.9-17.4-2.4-8.8 0.7-18t11.9-16.6q8.8-7.1 26.6-11.8" fill="none" stroke="#999" stroke-linecap="round" stroke-linejoin="round" stroke-width="28"/>
  <path d="m153.1-61.8 6.5-21.7 34.4 7.8-7.5 22.9 17 4.5-6.8 25.2-16.9-4.5-7.2 26.9q-1.3 4.8-0.8 6.4 0.4 1.9 3.5 2.7l11.4 0.8-4.2 24.5q-13.4-0.8-23.3-3.5-11.8-3.1-16.6-7.7-2-1.7-3.3-3.8-2.3-3.6-2.8-8.1-1-6.8 2.7-20.7l7.1-26.5-10.9-2.9 6.8-25.2 10.9 2.9m-22.5 2.6 0.2 0.6-6.3 25.8q-6.9-1.2-9.9-0.8-5 0.7-7.3 3.3-3.7 9.5-0.9 28.7l4 29-33.6 4.8-13-84.5 32.5-4.6 1.9 13.3q0.2-8.2 4.6-12.4 4.3-4.3 11.5-5.3 6.7-1 16.3 2.7l-0.1-0.7 0.1 0.1m-76 9.9q4 2.3 6.3 9 2.7 6.8 2.7 13.1v36q0 5.8 0.4 9 0.7 2.5 5.6 10.3h-34.4l-3.1-5.8q-0.5-1.8-0.5-4.1-4 5.4-10.8 8.1-8.5 3.6-19.8 3.6l-9.1-0.7q-20.3-6.3-20.3-29.1 0-8.5 5.8-13.9 6.1-4.9 19.1-7.6l23-4.9 9.9-3.2q0-4-1.8-5.8-2.3-2.3-7.7-2.3-7.2 0-10.8 2.3-2.2 1.8-4.5 7.6l-32.1-3.1 0.3-5.1q1.7-6.2 4.4-9.8 3.1-4.9 9.9-8.5 4.5-2.3 12.1-3.6 7.7-1.4 16.7-1.4l23.4 1.4q9 1.8 15.3 8.5m-25.2 38.3q-4.5 2.2-13.1 4-7.6 2.3-9.9 4.5-2.2 2.3-2.2 5 0 3.1 2.2 4.9 1.8 1.8 6.3 1.8 5 0 9-2.2 4.1-2.3 5.9-5.9 1.8-3.1 1.8-8.5v-3.6m-62-19.8v-0.5h-16.7v27.9q0 5 0.9 6.3 0.9 1.8 4.1 1.8 2.7 0 9.4-1.8h0.8v25q-11.1 2-20.1 2-12.2 0-18-3.1-6.3-3.2-9-9.9-2.7-6.3-2.7-20.7v-27.5h-11.2v-26.1h11.2v-25.1h34.6v25.1h17.6v22.1l0.1-0.6-0.3 5.1h-0.7m-129.7-45.9q21.3-5.8 35.3-0.6 12.2 4.7 19.4 20.4h0.1l0.9 3.4-0.4 0.4-0.1-0.2-33.3 11.2q-3.5-7.9-7.8-10-4.8-2-11.3-0.2-5.2 1.3-7.2 4.2t-1.3 5.5q0.5 2.2 3.6 3.2 2.2 1.3 11 0.8 23.8-1.3 35.2 1.3 11 2.6 17.8 8.8l0.7 0.7q6.2 6.3 8.6 14.9 2.5 9.4 0.4 18.5l-1 3.6q-3.7 10.7-13.2 18.4-9.7 7.7-26.2 12.2-28.7 7.6-42.9-0.2-13.9-8.4-20.6-26.6l34.6-11.6q3.6 8.3 7.8 11.4 6.4 4.8 15.1 2.5 6.9-1.9 9.6-5.8 2.6-4 1.6-7.9-1-3.5-5.2-5.6-4.3-2.1-19-1.4-23.1 1-36.5-7.5-11.2-3.6-14.9-17.4-2.4-8.8 0.7-18t11.9-16.6q8.8-7.1 26.6-11.8" fill-rule="evenodd"/>
  <path d="m153.1-61.8 6.5-21.7 34.4 7.8-7.5 22.9 17 4.5-6.8 25.2-16.9-4.5-7.2 26.9q-1.3 4.8-0.8 6.4 0.4 1.9 3.5 2.7l11.4 0.8-4.2 24.5q-13.4-0.8-23.3-3.5-11.8-3.1-16.6-7.7-2-1.7-3.3-3.8-2.3-3.6-2.8-8.1-1-6.8 2.7-20.7l7.1-26.5-10.9-2.9 6.8-25.2 10.9 2.9m-22.5 2.6 0.2 0.6-6.3 25.8q-6.9-1.2-9.9-0.8-5 0.7-7.3 3.3-3.7 9.5-0.9 28.7l4 29-33.6 4.8-13-84.5 32.5-4.6 1.9 13.3q0.2-8.2 4.6-12.4 4.3-4.3 11.5-5.3 6.7-1 16.3 2.7l-0.1-0.7 0.1 0.1m-76 9.9q4 2.3 6.3 9 2.7 6.8 2.7 13.1v36q0 5.8 0.4 9 0.7 2.5 5.6 10.3h-34.4l-3.1-5.8q-0.5-1.8-0.5-4.1-4 5.4-10.8 8.1-8.5 3.6-19.8 3.6l-9.1-0.7q-20.3-6.3-20.3-29.1 0-8.5 5.8-13.9 6.1-4.9 19.1-7.6l23-4.9 9.9-3.2q0-4-1.8-5.8-2.3-2.3-7.7-2.3-7.2 0-10.8 2.3-2.2 1.8-4.5 7.6l-32.1-3.1 0.3-5.1q1.7-6.2 4.4-9.8 3.1-4.9 9.9-8.5 4.5-2.3 12.1-3.6 7.7-1.4 16.7-1.4l23.4 1.4q9 1.8 15.3 8.5m-25.2 38.3q-4.5 2.2-13.1 4-7.6 2.3-9.9 4.5-2.2 2.3-2.2 5 0 3.1 2.2 4.9 1.8 1.8 6.3 1.8 5 0 9-2.2 4.1-2.3 5.9-5.9 1.8-3.1 1.8-8.5v-3.6m-62-19.8v-0.5h-16.7v27.9q0 5 0.9 6.3 0.9 1.8 4.1 1.8 2.7 0 9.4-1.8h0.8v25q-11.1 2-20.1 2-12.2 0-18-3.1-6.3-3.2-9-9.9-2.7-6.3-2.7-20.7v-27.5h-11.2v-26.1h11.2v-25.1h34.6v25.1h17.6v22.1l0.1-0.6-0.3 5.1h-0.7m-129.7-45.9q21.3-5.8 35.3-0.6 12.2 4.7 19.4 20.4h0.1l0.9 3.4-0.4 0.4-0.1-0.2-33.3 11.2q-3.5-7.9-7.8-10-4.8-2-11.3-0.2-5.2 1.3-7.2 4.2t-1.3 5.5q0.5 2.2 3.6 3.2 2.2 1.3 11 0.8 23.8-1.3 35.2 1.3 11 2.6 17.8 8.8l0.7 0.7q6.2 6.3 8.6 14.9 2.5 9.4 0.4 18.5l-1 3.6q-3.7 10.7-13.2 18.4-9.7 7.7-26.2 12.2-28.7 7.6-42.9-0.2-13.9-8.4-20.6-26.6l34.6-11.6q3.6 8.3 7.8 11.4 6.4 4.8 15.1 2.5 6.9-1.9 9.6-5.8 2.6-4 1.6-7.9-1-3.5-5.2-5.6-4.3-2.1-19-1.4-23.1 1-36.5-7.5-11.2-3.6-14.9-17.4-2.4-8.8 0.7-18t11.9-16.6q8.8-7.1 26.6-11.8" fill="none" stroke="#333" stroke-linecap="round" stroke-linejoin="round" stroke-width="18"/>
  <path d="m153.1-61.8 6.5-21.7 34.4 7.8-7.5 22.9 17 4.5-6.8 25.2-16.9-4.5-7.2 26.9q-1.3 4.8-0.8 6.4 0.4 1.9 3.5 2.7l11.4 0.8-4.2 24.5q-13.4-0.8-23.3-3.5-11.8-3.1-16.6-7.7-2-1.7-3.3-3.8-2.3-3.6-2.8-8.1-1-6.8 2.7-20.7l7.1-26.5-10.9-2.9 6.8-25.2 10.9 2.9m-22.5 2.6 0.2 0.6-6.3 25.8q-6.9-1.2-9.9-0.8-5 0.7-7.3 3.3-3.7 9.5-0.9 28.7l4 29-33.6 4.8-13-84.5 32.5-4.6 1.9 13.3q0.2-8.2 4.6-12.4 4.3-4.3 11.5-5.3 6.7-1 16.3 2.7l-0.1-0.7 0.1 0.1m-76 9.9q4 2.3 6.3 9 2.7 6.8 2.7 13.1v36q0 5.8 0.4 9 0.7 2.5 5.6 10.3h-34.4l-3.1-5.8q-0.5-1.8-0.5-4.1-4 5.4-10.8 8.1-8.5 3.6-19.8 3.6l-9.1-0.7q-20.3-6.3-20.3-29.1 0-8.5 5.8-13.9 6.1-4.9 19.1-7.6l23-4.9 9.9-3.2q0-4-1.8-5.8-2.3-2.3-7.7-2.3-7.2 0-10.8 2.3-2.2 1.8-4.5 7.6l-32.1-3.1 0.3-5.1q1.7-6.2 4.4-9.8 3.1-4.9 9.9-8.5 4.5-2.3 12.1-3.6 7.7-1.4 16.7-1.4l23.4 1.4q9 1.8 15.3 8.5m-25.2 38.3q-4.5 2.2-13.1 4-7.6 2.3-9.9 4.5-2.2 2.3-2.2 5 0 3.1 2.2 4.9 1.8 1.8 6.3 1.8 5 0 9-2.2 4.1-2.3 5.9-5.9 1.8-3.1 1.8-8.5v-3.6m-62-19.8v-0.5h-16.7v27.9q0 5 0.9 6.3 0.9 1.8 4.1 1.8 2.7 0 9.4-1.8h0.8v25q-11.1 2-20.1 2-12.2 0-18-3.1-6.3-3.2-9-9.9-2.7-6.3-2.7-20.7v-27.5h-11.2v-26.1h11.2v-25.1h34.6v25.1h17.6v22.1l0.1-0.6-0.3 5.1h-0.7m-129.7-45.9q21.3-5.8 35.3-0.6 12.2 4.7 19.4 20.4h0.1l0.9 3.4-0.4 0.4-0.1-0.2-33.3 11.2q-3.5-7.9-7.8-10-4.8-2-11.3-0.2-5.2 1.3-7.2 4.2t-1.3 5.5q0.5 2.2 3.6 3.2 2.2 1.3 11 0.8 23.8-1.3 35.2 1.3 11 2.6 17.8 8.8l0.7 0.7q6.2 6.3 8.6 14.9 2.5 9.4 0.4 18.5l-1 3.6q-3.7 10.7-13.2 18.4-9.7 7.7-26.2 12.2-28.7 7.6-42.9-0.2-13.9-8.4-20.6-26.6l34.6-11.6q3.6 8.3 7.8 11.4 6.4 4.8 15.1 2.5 6.9-1.9 9.6-5.8 2.6-4 1.6-7.9-1-3.5-5.2-5.6-4.3-2.1-19-1.4-23.1 1-36.5-7.5-11.2-3.6-14.9-17.4-2.4-8.8 0.7-18t11.9-16.6q8.8-7.1 26.6-11.8" fill="#fff" fill-rule="evenodd"/>
  <path d="m153.1-61.8 6.5-21.7 34.4 7.8-7.5 22.9 17 4.5-6.8 25.2-16.9-4.5-7.2 26.9q-1.3 4.8-0.8 6.4 0.4 1.9 3.5 2.7l11.4 0.8-4.2 24.5q-13.4-0.8-23.3-3.5-11.8-3.1-16.6-7.7-2-1.7-3.3-3.8-2.3-3.6-2.8-8.1-1-6.8 2.7-20.7l7.1-26.5-10.9-2.9 6.8-25.2 10.9 2.9m-22.5 2.6 0.2 0.6-6.3 25.8q-6.9-1.2-9.9-0.8-5 0.7-7.3 3.3-3.7 9.5-0.9 28.7l4 29-33.6 4.8-13-84.5 32.5-4.6 1.9 13.3q0.2-8.2 4.6-12.4 4.3-4.3 11.5-5.3 6.7-1 16.3 2.7l-0.1-0.7 0.1 0.1m-76 9.9q4 2.3 6.3 9 2.7 6.8 2.7 13.1v36q0 5.8 0.4 9 0.7 2.5 5.6 10.3h-34.4l-3.1-5.8q-0.5-1.8-0.5-4.1-4 5.4-10.8 8.1-8.5 3.6-19.8 3.6l-9.1-0.7q-20.3-6.3-20.3-29.1 0-8.5 5.8-13.9 6.1-4.9 19.1-7.6l23-4.9 9.9-3.2q0-4-1.8-5.8-2.3-2.3-7.7-2.3-7.2 0-10.8 2.3-2.2 1.8-4.5 7.6l-32.1-3.1 0.3-5.1q1.7-6.2 4.4-9.8 3.1-4.9 9.9-8.5 4.5-2.3 12.1-3.6 7.7-1.4 16.7-1.4l23.4 1.4q9 1.8 15.3 8.5m-25.2 38.3q-4.5 2.2-13.1 4-7.6 2.3-9.9 4.5-2.2 2.3-2.2 5 0 3.1 2.2 4.9 1.8 1.8 6.3 1.8 5 0 9-2.2 4.1-2.3 5.9-5.9 1.8-3.1 1.8-8.5v-3.6m-62-19.8v-0.5h-16.7v27.9q0 5 0.9 6.3 0.9 1.8 4.1 1.8 2.7 0 9.4-1.8h0.8v25q-11.1 2-20.1 2-12.2 0-18-3.1-6.3-3.2-9-9.9-2.7-6.3-2.7-20.7v-27.5h-11.2v-26.1h11.2v-25.1h34.6v25.1h17.6v22.1l0.1-0.6-0.3 5.1h-0.7m-129.7-45.9q21.3-5.8 35.3-0.6 12.2 4.7 19.4 20.4h0.1l0.9 3.4-0.4 0.4-0.1-0.2-33.3 11.2q-3.5-7.9-7.8-10-4.8-2-11.3-0.2-5.2 1.3-7.2 4.2t-1.3 5.5q0.5 2.2 3.6 3.2 2.2 1.3 11 0.8 23.8-1.3 35.2 1.3 11 2.6 17.8 8.8l0.7 0.7q6.2 6.3 8.6 14.9 2.5 9.4 0.4 18.5l-1 3.6q-3.7 10.7-13.2 18.4-9.7 7.7-26.2 12.2-28.7 7.6-42.9-0.2-13.9-8.4-20.6-26.6l34.6-11.6q3.6 8.3 7.8 11.4 6.4 4.8 15.1 2.5 6.9-1.9 9.6-5.8 2.6-4 1.6-7.9-1-3.5-5.2-5.6-4.3-2.1-19-1.4-23.1 1-36.5-7.5-11.2-3.6-14.9-17.4-2.4-8.8 0.7-18t11.9-16.6q8.8-7.1 26.6-11.8" fill="none" stroke="#fff" stroke-linecap="round" stroke-linejoin="round" stroke-width="8"/>
  <path d="m-32.6-31.3h-16.7v27.9q0 5 0.9 6.3 0.9 1.8 4.1 1.8 2.7 0 9.4-1.8h0.8v25q-11.1 2-20.1 2-12.2 0-18-3.1-6.3-3.2-9-9.9-2.7-6.3-2.7-20.7v-27.5h-11.2v-26.1h11.2v-25.1h34.6v25.1h17.6v22.1l0.1-0.6-0.3 5.1h-0.7v-0.5" fill="url(#gradient0)" fill-rule="evenodd"/>
  <path d="m159.6-83.5 34.4 7.8-7.5 22.9 17 4.5-6.8 25.2-16.9-4.5-7.2 26.9q-1.3 4.8-0.8 6.4 0.4 1.9 3.5 2.7l11.4 0.8-4.2 24.5q-13.4-0.8-23.3-3.5-11.8-3.1-16.6-7.7-2-1.7-3.3-3.8-2.3-3.6-2.8-8.1-1-6.8 2.7-20.7l7.1-26.5-10.9-2.9 6.8-25.2 10.9 2.9 6.5-21.7" fill="url(#gradient1)" fill-rule="evenodd"/>
  <path d="m-162.3-76.7q21.3-5.8 35.3-0.6 12.2 4.7 19.4 20.4h0.1l0.9 3.4-0.4 0.4-0.1-0.2-33.3 11.2q-3.5-7.9-7.8-10-4.8-2-11.3-0.2-5.2 1.3-7.2 4.2t-1.3 5.5q0.5 2.2 3.6 3.2 2.2 1.3 11 0.8 23.8-1.3 35.2 1.3 11 2.6 17.8 8.8l0.7 0.7q6.2 6.3 8.6 14.9 2.5 9.4 0.4 18.5l-1 3.6q-3.7 10.7-13.2 18.4-9.7 7.7-26.2 12.2-28.7 7.6-42.9-0.2-13.9-8.4-20.6-26.6l34.6-11.6q3.6 8.3 7.8 11.4 6.4 4.8 15.1 2.5 6.9-1.9 9.6-5.8 2.6-4 1.6-7.9-1-3.5-5.2-5.6-4.3-2.1-19-1.4-23.1 1-36.5-7.5-11.2-3.6-14.9-17.4-2.4-8.8 0.7-18t11.9-16.6q8.8-7.1 26.6-11.8" fill="url(#gradient2)" fill-rule="evenodd"/>
  <path d="m130.6-59.2 0.2 0.6-6.3 25.8q-6.9-1.2-9.9-0.8-5 0.7-7.3 3.3-3.7 9.5-0.9 28.7l4 29-33.6 4.8-13-84.5 32.5-4.6 1.9 13.3q0.2-8.2 4.6-12.4 4.3-4.3 11.5-5.3 6.7-1 16.3 2.7l-0.1-0.7 0.1 0.1" fill="url(#gradient3)" fill-rule="evenodd"/>
  <path d="m54.6-49.3q4 2.3 6.3 9 2.7 6.8 2.7 13.1v36q0 5.8 0.4 9 0.7 2.5 5.6 10.3h-34.4l-3.1-5.8q-0.5-1.8-0.5-4.1-4 5.4-10.8 8.1-8.5 3.6-19.8 3.6l-9.1-0.7q-20.3-6.3-20.3-29.1 0-8.5 5.8-13.9 6.1-4.9 19.1-7.6l23-4.9 9.9-3.2q0-4-1.8-5.8-2.3-2.3-7.7-2.3-7.2 0-10.8 2.3-2.2 1.8-4.5 7.6l-32.1-3.1 0.3-5.1q1.7-6.2 4.4-9.8 3.1-4.9 9.9-8.5 4.5-2.3 12.1-3.6 7.7-1.4 16.7-1.4l23.4 1.4q9 1.8 15.3 8.5m-25.2 38.3q-4.5 2.2-13.1 4-7.6 2.3-9.9 4.5-2.2 2.3-2.2 5 0 3.1 2.2 4.9 1.8 1.8 6.3 1.8 5 0 9-2.2 4.1-2.3 5.9-5.9 1.8-3.1 1.8-8.5v-3.6" fill="url(#gradient4)" fill-rule="evenodd"/>
  <path d="m-126.7 14.9q1.25 0 2.15 0.85 0.9 0.95 0.9 2.15 0 1.25-0.9 2.15t-2.15 0.9q-1.2 0-2.15-0.9-0.85-0.9-0.85-2.15 0-1.2 0.85-2.15 0.95-0.85 2.15-0.85" fill="#fff" fill-opacity=".50196" fill-rule="evenodd"/>
  <path d="m-178.2-63.8q2.8 0 4.8 1.95 2.05 2.1 2.05 4.85 0 2.8-2.05 4.8-2 2.05-4.8 2.05-2.75 0-4.85-2.05-1.95-2-1.95-4.8 0-2.75 1.95-4.85 2.1-1.95 4.85-1.95" fill="#fff" fill-opacity=".50196" fill-rule="evenodd"/>
  <path d="m-113.7 1.2q2.8 0 4.8 1.95 2.05 2.1 2.05 4.85 0 2.8-2.05 4.8-2 2.05-4.8 2.05-2.75 0-4.85-2.05-1.95-2-1.95-4.8 0-2.75 1.95-4.85 2.1-1.95 4.85-1.95" fill="#fff" fill-opacity=".50196" fill-rule="evenodd"/>
  <path d="m-109.25-20.15q3.65 0 6.2 2.55 2.7 2.7 2.7 6.3 0 3.65-2.7 6.25-2.55 2.65-6.2 2.65-3.6 0-6.3-2.65-2.55-2.6-2.55-6.25 0-3.6 2.55-6.3 2.7-2.55 6.3-2.55" fill="#fff" fill-opacity=".50196" fill-rule="evenodd"/>
  <path d="m45.45 1.25q3.65 0 6.2 2.55 2.7 2.7 2.7 6.3 0 3.65-2.7 6.25-2.55 2.65-6.2 2.65-3.6 0-6.3-2.65-2.55-2.6-2.55-6.25 0-3.6 2.55-6.3 2.7-2.55 6.3-2.55" fill="#fff" fill-opacity=".50196" fill-rule="evenodd"/>
  <path d="m-65.95-13.05q3.65 0 6.2 2.55 2.7 2.7 2.7 6.3 0 3.65-2.7 6.25-2.55 2.65-6.2 2.65-3.6 0-6.3-2.65-2.55-2.6-2.55-6.25 0-3.6 2.55-6.3 2.7-2.55 6.3-2.55" fill="#fff" fill-opacity=".50196" fill-rule="evenodd"/>
  <path d="m-58.7 7.3q2.8 0 4.8 1.95 2.05 2.1 2.05 4.85 0 2.8-2.05 4.8-2 2.05-4.8 2.05-2.75 0-4.85-2.05-1.95-2-1.95-4.8 0-2.75 1.95-4.85 2.1-1.95 4.85-1.95" fill="#fff" fill-opacity=".50196" fill-rule="evenodd"/>
  <path d="m-44.6 14.9q1.25 0 2.15 0.85 0.9 0.95 0.9 2.15 0 1.25-0.9 2.15t-2.15 0.9q-1.2 0-2.15-0.9-0.85-0.9-0.85-2.15 0-1.2 0.85-2.15 0.95-0.85 2.15-0.85" fill="#fff" fill-opacity=".50196" fill-rule="evenodd"/>
  <path d="m-71.8-65.7q1.25 0 2.15 0.85 0.9 0.95 0.9 2.15 0 1.25-0.9 2.15t-2.15 0.9q-1.2 0-2.15-0.9-0.85-0.9-0.85-2.15 0-1.2 0.85-2.15 0.95-0.85 2.15-0.85" fill="#fff" fill-opacity=".50196" fill-rule="evenodd"/>
  <path d="m41.5-16.1q2.8 0 4.8 1.95 2.05 2.1 2.05 4.85 0 2.8-2.05 4.8-2 2.05-4.8 2.05-2.75 0-4.85-2.05-1.95-2-1.95-4.8 0-2.75 1.95-4.85 2.1-1.95 4.85-1.95" fill="#fff" fill-opacity=".50196" fill-rule="evenodd"/>
  <path d="m39.6-28.7q1.25 0 2.15 0.85 0.9 0.95 0.9 2.15 0 1.25-0.9 2.15t-2.15 0.9q-1.2 0-2.15-0.9-0.85-0.9-0.85-2.15 0-1.2 0.85-2.15 0.95-0.85 2.15-0.85" fill="#fff" fill-opacity=".50196" fill-rule="evenodd"/>
  <path d="m-7.8-44.5q1.25 0 2.15 0.85 0.9 0.95 0.9 2.15 0 1.25-0.9 2.15t-2.15 0.9q-1.2 0-2.15-0.9-0.85-0.9-0.85-2.15 0-1.2 0.85-2.15 0.95-0.85 2.15-0.85" fill="#fff" fill-opacity=".50196" fill-rule="evenodd"/>
  <path d="m85.35 3.25q3.65 0 6.2 2.55 2.7 2.7 2.7 6.3 0 3.65-2.7 6.25-2.55 2.65-6.2 2.65-3.6 0-6.3-2.65-2.55-2.6-2.55-6.25 0-3.6 2.55-6.3 2.7-2.55 6.3-2.55" fill="#fff" fill-opacity=".50196" fill-rule="evenodd"/>
  <path d="m83.3-14.5q2.8 0 4.8 1.95 2.05 2.1 2.05 4.85 0 2.8-2.05 4.8-2 2.05-4.8 2.05-2.75 0-4.85-2.05-1.95-2-1.95-4.8 0-2.75 1.95-4.85 2.1-1.95 4.85-1.95" fill="#fff" fill-opacity=".50196" fill-rule="evenodd"/>
  <path d="m83.3-25q1.25 0 2.15 0.85 0.9 0.95 0.9 2.15 0 1.25-0.9 2.15t-2.15 0.9q-1.2 0-2.15-0.9-0.85-0.9-0.85-2.15 0-1.2 0.85-2.15 0.95-0.85 2.15-0.85" fill="#fff" fill-opacity=".50196" fill-rule="evenodd"/>
  <path d="m119.1-50.1q1.25 0 2.15 0.85 0.9 0.95 0.9 2.15 0 1.25-0.9 2.15t-2.15 0.9q-1.2 0-2.15-0.9-0.85-0.9-0.85-2.15 0-1.2 0.85-2.15 0.95-0.85 2.15-0.85" fill="#fff" fill-opacity=".50196" fill-rule="evenodd"/>
  <path d="m108.55-47.65q2.25 0 3.8 1.6 1.7 1.65 1.7 3.85 0 2.25-1.7 3.85-1.55 1.65-3.8 1.65-2.2 0-3.9-1.65-1.55-1.6-1.55-3.85 0-2.2 1.55-3.85 1.7-1.6 3.9-1.6" fill="#fff" fill-opacity=".50196" fill-rule="evenodd"/>
  <path d="m160.85-12.05q3.65 0 6.2 2.55 2.7 2.7 2.7 6.3 0 3.65-2.7 6.25-2.55 2.65-6.2 2.65-3.6 0-6.3-2.65-2.55-2.6-2.55-6.25 0-3.6 2.55-6.3 2.7-2.55 6.3-2.55" fill="#fff" fill-opacity=".50196" fill-rule="evenodd"/>
  <path d="m168.1 8.3q2.8 0 4.8 1.95 2.05 2.1 2.05 4.85 0 2.8-2.05 4.8-2 2.05-4.8 2.05-2.75 0-4.85-2.05-1.95-2-1.95-4.8 0-2.75 1.95-4.85 2.1-1.95 4.85-1.95" fill="#fff" fill-opacity=".50196" fill-rule="evenodd"/>
  <path d="m182.2 15.9q1.25 0 2.15 0.85 0.9 0.95 0.9 2.15 0 1.25-0.9 2.15t-2.15 0.9q-1.2 0-2.15-0.9-0.85-0.9-0.85-2.15 0-1.2 0.85-2.15 0.95-0.85 2.15-0.85" fill="#fff" fill-opacity=".50196" fill-rule="evenodd"/>
  <path d="m155-64.7q1.25 0 2.15 0.85 0.9 0.95 0.9 2.15 0 1.25-0.9 2.15t-2.15 0.9q-1.2 0-2.15-0.9-0.85-0.9-0.85-2.15 0-1.2 0.85-2.15 0.95-0.85 2.15-0.85" fill="#fff" fill-opacity=".50196" fill-rule="evenodd"/>
 </g>
 <defs>
  <linearGradient id="gradient0" x1="-819.2" x2="819.2" gradientTransform="matrix(.2455 0 0 .2414 .7 -30.4)" gradientUnits="userSpaceOnUse">
   <stop stop-color="#fc0" offset=".023529"/>
   <stop stop-color="#f00" offset="1"/>
  </linearGradient>
  <linearGradient id="gradient1" x1="-819.2" x2="819.2" gradientTransform="matrix(.2372 .0635 -.0625 .2332 6.6 -73.1)" gradientUnits="userSpaceOnUse">
   <stop stop-color="#fc0" offset=".023529"/>
   <stop stop-color="#f00" offset="1"/>
  </linearGradient>
  <linearGradient id="gradient2" x1="-819.2" x2="819.2" gradientTransform="matrix(.2372 -.0635 .0625 .2332 -8 -55.6)" gradientUnits="userSpaceOnUse">
   <stop stop-color="#fc0" offset=".023529"/>
   <stop stop-color="#f00" offset="1"/>
  </linearGradient>
  <linearGradient id="gradient3" x1="-819.2" x2="819.2" gradientTransform="matrix(.243 -.0343 .0337 .239 2.6 -16.5)" gradientUnits="userSpaceOnUse">
   <stop stop-color="#fc0" offset=".023529"/>
   <stop stop-color="#f00" offset="1"/>
  </linearGradient>
  <linearGradient id="gradient4" x1="-819.2" x2="819.2" gradientTransform="matrix(.2455 0 0 .2414 5.1 -30.4)" gradientUnits="userSpaceOnUse">
   <stop stop-color="#fc0" offset=".023529"/>
   <stop stop-color="#f00" offset="1"/>
  </linearGradient>
 </defs>
</svg>
