<svg version="1.1" viewBox="0 0 501.6 176.2" xmlns="http://www.w3.org/2000/svg">
 <g transform="translate(250.35 108.1)">
  <path d="m178.45-68.8 7.6-25.3 40.15 9.1-8.75 26.7 19.8 5.25-7.9 29.4-19.75-5.25-8.4 31.4q-1.5 5.6-0.9 7.45 0.45 2.2 4.05 3.15l13.3 0.95-4.9 28.55q-15.6-0.95-27.15-4.1-13.75-3.6-19.35-8.95-2.35-2-3.85-4.45-2.7-4.2-3.3-9.45-1.15-7.9 3.15-24.15l8.3-30.9-12.7-3.35 7.9-29.4 12.7 3.35m-26.2 3.05 0.2 0.7-7.35 30.1q-8.05-1.4-11.55-0.95-5.8 0.85-8.5 3.85-4.3 11.1-1.05 33.5l4.65 33.8-39.15 5.6-15.2-98.55 37.9-5.35q1.05 7.7 2.25 15.5 0.2-9.55 5.35-14.45 5-5.05 13.4-6.2 7.85-1.15 19.05 3.15-0.15-0.35-0.15-0.8l0.15 0.1m-88.65 11.55q4.65 2.7 7.35 10.5 3.15 7.95 3.15 15.25v42q0 6.8 0.45 10.5 0.8 2.95 6.55 12h-40.15l-3.6-6.75q-0.6-2.1-0.6-4.75-4.65 6.3-12.6 9.45-9.9 4.15-23.1 4.15l-10.6-0.8q-23.65-7.35-23.65-33.95 0-9.9 6.75-16.2 7.1-5.7 22.25-8.85l26.85-5.75q5.7-1.6 11.55-3.7 0-4.65-2.1-6.75-2.7-2.7-9-2.7-8.4 0-12.6 2.7-2.55 2.1-5.25 8.85l-37.4-3.65 0.35-5.9q1.95-7.25 5.1-11.45 3.6-5.7 11.55-9.9 5.25-2.7 14.1-4.2 9-1.65 19.5-1.65 16.8 0 27.3 1.65 10.5 2.1 17.85 9.9m-29.4 44.65q-5.25 2.6-15.3 4.7-8.85 2.65-11.55 5.25-2.55 2.65-2.55 5.8 0 3.65 2.55 5.75 2.1 2.1 7.35 2.1 5.85 0 10.5-2.6 4.8-2.65 6.9-6.85 2.1-3.65 2.1-9.95v-4.2m-72.3-23.1v-0.55h-19.5v32.55q0 5.8 1.05 7.35 1.05 2.1 4.8 2.1 3.15 0 10.95-2.1h0.95v29.15q-12.95 2.3-23.45 2.3-14.25 0-21-3.6-7.35-3.7-10.5-11.55-3.15-7.35-3.15-24.15v-32.05h-13.05v-30.45h13.05v-29.3h40.35v29.3h20.55v25.8l0.1-0.7q-0.1 3-0.35 5.9h-0.8m-151.3-53.5q24.85-6.8 41.15-0.7 14.25 5.45 22.65 23.8h0.1l1.05 3.95-0.45 0.45-0.1-0.2-38.85 13.05q-4.1-9.2-9.1-11.65-5.6-2.35-13.2-0.25-6.05 1.5-8.4 4.9-2.3 3.4-1.5 6.4 0.6 2.6 4.2 3.75 2.55 1.5 12.85 0.95 27.75-1.55 41.05 1.5 12.8 3.05 20.75 10.25l0.8 0.8q7.25 7.35 10.05 17.4 2.9 10.95 0.45 21.6l-1.15 4.2q-4.3 12.45-15.4 21.45-11.3 8.95-30.55 14.2-33.5 8.9-50.05-0.2-16.2-9.8-24.05-31.05l40.4-13.5q4.2 9.65 9.1 13.3 7.45 5.6 17.6 2.9 8.05-2.2 11.2-6.75 3-4.7 1.85-9.25-1.15-4.05-6.05-6.5-5.05-2.45-22.15-1.65-26.95 1.15-42.6-8.75-13.05-4.2-17.35-20.3-2.8-10.25 0.8-21 3.6-10.7 13.85-19.35 10.3-8.3 31.05-13.75" fill-rule="evenodd"/>
  <path d="m178.45-68.8 7.6-25.3 40.15 9.1-8.75 26.7 19.8 5.25-7.9 29.4-19.75-5.25-8.4 31.4q-1.5 5.6-0.9 7.45 0.45 2.2 4.05 3.15l13.3 0.95-4.9 28.55q-15.6-0.95-27.15-4.1-13.75-3.6-19.35-8.95-2.35-2-3.85-4.45-2.7-4.2-3.3-9.45-1.15-7.9 3.15-24.15l8.3-30.9-12.7-3.35 7.9-29.4 12.7 3.35m-26.2 3.05 0.2 0.7-7.35 30.1q-8.05-1.4-11.55-0.95-5.8 0.85-8.5 3.85-4.3 11.1-1.05 33.5l4.65 33.8-39.15 5.6-15.2-98.55 37.9-5.35q1.05 7.7 2.25 15.5 0.2-9.55 5.35-14.45 5-5.05 13.4-6.2 7.85-1.15 19.05 3.15-0.15-0.35-0.15-0.8l0.15 0.1m-88.65 11.55q4.65 2.7 7.35 10.5 3.15 7.95 3.15 15.25v42q0 6.8 0.45 10.5 0.8 2.95 6.55 12h-40.15l-3.6-6.75q-0.6-2.1-0.6-4.75-4.65 6.3-12.6 9.45-9.9 4.15-23.1 4.15l-10.6-0.8q-23.65-7.35-23.65-33.95 0-9.9 6.75-16.2 7.1-5.7 22.25-8.85l26.85-5.75q5.7-1.6 11.55-3.7 0-4.65-2.1-6.75-2.7-2.7-9-2.7-8.4 0-12.6 2.7-2.55 2.1-5.25 8.85l-37.4-3.65 0.35-5.9q1.95-7.25 5.1-11.45 3.6-5.7 11.55-9.9 5.25-2.7 14.1-4.2 9-1.65 19.5-1.65 16.8 0 27.3 1.65 10.5 2.1 17.85 9.9m-29.4 44.65q-5.25 2.6-15.3 4.7-8.85 2.65-11.55 5.25-2.55 2.65-2.55 5.8 0 3.65 2.55 5.75 2.1 2.1 7.35 2.1 5.85 0 10.5-2.6 4.8-2.65 6.9-6.85 2.1-3.65 2.1-9.95v-4.2m-72.3-23.1v-0.55h-19.5v32.55q0 5.8 1.05 7.35 1.05 2.1 4.8 2.1 3.15 0 10.95-2.1h0.95v29.15q-12.95 2.3-23.45 2.3-14.25 0-21-3.6-7.35-3.7-10.5-11.55-3.15-7.35-3.15-24.15v-32.05h-13.05v-30.45h13.05v-29.3h40.35v29.3h20.55v25.8l0.1-0.7q-0.1 3-0.35 5.9h-0.8m-151.3-53.5q24.85-6.8 41.15-0.7 14.25 5.45 22.65 23.8h0.1l1.05 3.95-0.45 0.45-0.1-0.2-38.85 13.05q-4.1-9.2-9.1-11.65-5.6-2.35-13.2-0.25-6.05 1.5-8.4 4.9-2.3 3.4-1.5 6.4 0.6 2.6 4.2 3.75 2.55 1.5 12.85 0.95 27.75-1.55 41.05 1.5 12.8 3.05 20.75 10.25l0.8 0.8q7.25 7.35 10.05 17.4 2.9 10.95 0.45 21.6l-1.15 4.2q-4.3 12.45-15.4 21.45-11.3 8.95-30.55 14.2-33.5 8.9-50.05-0.2-16.2-9.8-24.05-31.05l40.4-13.5q4.2 9.65 9.1 13.3 7.45 5.6 17.6 2.9 8.05-2.2 11.2-6.75 3-4.7 1.85-9.25-1.15-4.05-6.05-6.5-5.05-2.45-22.15-1.65-26.95 1.15-42.6-8.75-13.05-4.2-17.35-20.3-2.8-10.25 0.8-21 3.6-10.7 13.85-19.35 10.3-8.3 31.05-13.75" fill="none" stroke="#999" stroke-linecap="round" stroke-linejoin="round" stroke-width="28"/>
  <path d="m178.45-68.8 7.6-25.3 40.15 9.1-8.75 26.7 19.8 5.25-7.9 29.4-19.75-5.25-8.4 31.4q-1.5 5.6-0.9 7.45 0.45 2.2 4.05 3.15l13.3 0.95-4.9 28.55q-15.6-0.95-27.15-4.1-13.75-3.6-19.35-8.95-2.35-2-3.85-4.45-2.7-4.2-3.3-9.45-1.15-7.9 3.15-24.15l8.3-30.9-12.7-3.35 7.9-29.4 12.7 3.35m-26.2 3.05 0.2 0.7-7.35 30.1q-8.05-1.4-11.55-0.95-5.8 0.85-8.5 3.85-4.3 11.1-1.05 33.5l4.65 33.8-39.15 5.6-15.2-98.55 37.9-5.35q1.05 7.7 2.25 15.5 0.2-9.55 5.35-14.45 5-5.05 13.4-6.2 7.85-1.15 19.05 3.15-0.15-0.35-0.15-0.8l0.15 0.1m-88.65 11.55q4.65 2.7 7.35 10.5 3.15 7.95 3.15 15.25v42q0 6.8 0.45 10.5 0.8 2.95 6.55 12h-40.15l-3.6-6.75q-0.6-2.1-0.6-4.75-4.65 6.3-12.6 9.45-9.9 4.15-23.1 4.15l-10.6-0.8q-23.65-7.35-23.65-33.95 0-9.9 6.75-16.2 7.1-5.7 22.25-8.85l26.85-5.75q5.7-1.6 11.55-3.7 0-4.65-2.1-6.75-2.7-2.7-9-2.7-8.4 0-12.6 2.7-2.55 2.1-5.25 8.85l-37.4-3.65 0.35-5.9q1.95-7.25 5.1-11.45 3.6-5.7 11.55-9.9 5.25-2.7 14.1-4.2 9-1.65 19.5-1.65 16.8 0 27.3 1.65 10.5 2.1 17.85 9.9m-29.4 44.65q-5.25 2.6-15.3 4.7-8.85 2.65-11.55 5.25-2.55 2.65-2.55 5.8 0 3.65 2.55 5.75 2.1 2.1 7.35 2.1 5.85 0 10.5-2.6 4.8-2.65 6.9-6.85 2.1-3.65 2.1-9.95v-4.2m-72.3-23.1v-0.55h-19.5v32.55q0 5.8 1.05 7.35 1.05 2.1 4.8 2.1 3.15 0 10.95-2.1h0.95v29.15q-12.95 2.3-23.45 2.3-14.25 0-21-3.6-7.35-3.7-10.5-11.55-3.15-7.35-3.15-24.15v-32.05h-13.05v-30.45h13.05v-29.3h40.35v29.3h20.55v25.8l0.1-0.7q-0.1 3-0.35 5.9h-0.8m-151.3-53.5q24.85-6.8 41.15-0.7 14.25 5.45 22.65 23.8h0.1l1.05 3.95-0.45 0.45-0.1-0.2-38.85 13.05q-4.1-9.2-9.1-11.65-5.6-2.35-13.2-0.25-6.05 1.5-8.4 4.9-2.3 3.4-1.5 6.4 0.6 2.6 4.2 3.75 2.55 1.5 12.85 0.95 27.75-1.55 41.05 1.5 12.8 3.05 20.75 10.25l0.8 0.8q7.25 7.35 10.05 17.4 2.9 10.95 0.45 21.6l-1.15 4.2q-4.3 12.45-15.4 21.45-11.3 8.95-30.55 14.2-33.5 8.9-50.05-0.2-16.2-9.8-24.05-31.05l40.4-13.5q4.2 9.65 9.1 13.3 7.45 5.6 17.6 2.9 8.05-2.2 11.2-6.75 3-4.7 1.85-9.25-1.15-4.05-6.05-6.5-5.05-2.45-22.15-1.65-26.95 1.15-42.6-8.75-13.05-4.2-17.35-20.3-2.8-10.25 0.8-21 3.6-10.7 13.85-19.35 10.3-8.3 31.05-13.75" fill-rule="evenodd"/>
  <path d="m178.45-68.8 7.6-25.3 40.15 9.1-8.75 26.7 19.8 5.25-7.9 29.4-19.75-5.25-8.4 31.4q-1.5 5.6-0.9 7.45 0.45 2.2 4.05 3.15l13.3 0.95-4.9 28.55q-15.6-0.95-27.15-4.1-13.75-3.6-19.35-8.95-2.35-2-3.85-4.45-2.7-4.2-3.3-9.45-1.15-7.9 3.15-24.15l8.3-30.9-12.7-3.35 7.9-29.4 12.7 3.35m-26.2 3.05 0.2 0.7-7.35 30.1q-8.05-1.4-11.55-0.95-5.8 0.85-8.5 3.85-4.3 11.1-1.05 33.5l4.65 33.8-39.15 5.6-15.2-98.55 37.9-5.35q1.05 7.7 2.25 15.5 0.2-9.55 5.35-14.45 5-5.05 13.4-6.2 7.85-1.15 19.05 3.15-0.15-0.35-0.15-0.8l0.15 0.1m-88.65 11.55q4.65 2.7 7.35 10.5 3.15 7.95 3.15 15.25v42q0 6.8 0.45 10.5 0.8 2.95 6.55 12h-40.15l-3.6-6.75q-0.6-2.1-0.6-4.75-4.65 6.3-12.6 9.45-9.9 4.15-23.1 4.15l-10.6-0.8q-23.65-7.35-23.65-33.95 0-9.9 6.75-16.2 7.1-5.7 22.25-8.85l26.85-5.75q5.7-1.6 11.55-3.7 0-4.65-2.1-6.75-2.7-2.7-9-2.7-8.4 0-12.6 2.7-2.55 2.1-5.25 8.85l-37.4-3.65 0.35-5.9q1.95-7.25 5.1-11.45 3.6-5.7 11.55-9.9 5.25-2.7 14.1-4.2 9-1.65 19.5-1.65 16.8 0 27.3 1.65 10.5 2.1 17.85 9.9m-29.4 44.65q-5.25 2.6-15.3 4.7-8.85 2.65-11.55 5.25-2.55 2.65-2.55 5.8 0 3.65 2.55 5.75 2.1 2.1 7.35 2.1 5.85 0 10.5-2.6 4.8-2.65 6.9-6.85 2.1-3.65 2.1-9.95v-4.2m-72.3-23.1v-0.55h-19.5v32.55q0 5.8 1.05 7.35 1.05 2.1 4.8 2.1 3.15 0 10.95-2.1h0.95v29.15q-12.95 2.3-23.45 2.3-14.25 0-21-3.6-7.35-3.7-10.5-11.55-3.15-7.35-3.15-24.15v-32.05h-13.05v-30.45h13.05v-29.3h40.35v29.3h20.55v25.8l0.1-0.7q-0.1 3-0.35 5.9h-0.8m-151.3-53.5q24.85-6.8 41.15-0.7 14.25 5.45 22.65 23.8h0.1l1.05 3.95-0.45 0.45-0.1-0.2-38.85 13.05q-4.1-9.2-9.1-11.65-5.6-2.35-13.2-0.25-6.05 1.5-8.4 4.9-2.3 3.4-1.5 6.4 0.6 2.6 4.2 3.75 2.55 1.5 12.85 0.95 27.75-1.55 41.05 1.5 12.8 3.05 20.75 10.25l0.8 0.8q7.25 7.35 10.05 17.4 2.9 10.95 0.45 21.6l-1.15 4.2q-4.3 12.45-15.4 21.45-11.3 8.95-30.55 14.2-33.5 8.9-50.05-0.2-16.2-9.8-24.05-31.05l40.4-13.5q4.2 9.65 9.1 13.3 7.45 5.6 17.6 2.9 8.05-2.2 11.2-6.75 3-4.7 1.85-9.25-1.15-4.05-6.05-6.5-5.05-2.45-22.15-1.65-26.95 1.15-42.6-8.75-13.05-4.2-17.35-20.3-2.8-10.25 0.8-21 3.6-10.7 13.85-19.35 10.3-8.3 31.05-13.75" fill="none" stroke="#333" stroke-linecap="round" stroke-linejoin="round" stroke-width="18"/>
  <path d="m63.55-54.2q4.7 2.65 7.35 10.5 3.15 7.85 3.15 15.25v42q0 6.8 0.55 10.45 0.85 3 6.5 12.1h-40.1l-3.7-6.8q-0.5-2.1-0.5-4.75-4.75 6.3-12.6 9.45-10 4.2-23.1 4.2l-10.6-0.85q-23.7-7.35-23.7-33.9 0-9.9 6.75-16.2 7.2-5.8 22.3-8.85l26.75-5.8q5.8-1.6 11.55-3.7 0-4.75-2.1-6.8-2.65-2.65-8.9-2.65-8.45 0-12.6 2.65-2.65 2.05-5.25 8.9l-37.45-3.6 0.35-5.95q2-7.2 5.1-11.4 3.65-5.8 11.55-10 5.2-2.6 14.15-4.2 8.9-1.55 19.4-1.55 16.8 0 27.3 1.55 10.5 2.05 17.85 9.95m-29.4 44.65q-5.25 2.6-15.2 4.7-8.95 2.65-11.55 5.25-2.65 2.65-2.65 5.8 0 3.65 2.65 5.75 2.1 2.1 7.35 2.1 5.75 0 10.5-2.6 4.7-2.65 6.8-6.85 2.1-3.65 2.1-10v-4.15m80.3-38q0.2-9.55 5.3-14.5 5.15-4.95 13.45-6.1 7.9-1.15 19 3.1l-0.1-0.8 0.1 0.1 0.2 0.65v0.05l-7.3 30.1q-8-1.45-11.55-0.95-5.75 0.8-8.5 3.85-4.25 11.15-1.05 33.5l4.7 33.8-39.25 5.6-15.15-98.6 37.9-5.35 2.25 15.55m64-21.2 7.6-25.3 40.15 9.1-8.75 26.65 19.75 5.3-7.85 29.4-19.75-5.3-8.4 31.4q-1.5 5.6-0.85 7.45 0.4 2.25 4 3.2l13.35 0.85-5 28.55q-15.5-0.85-27.15-4-13.7-3.65-19.35-9-2.3-2-3.85-4.45-2.65-4.15-3.25-9.4-1.15-7.9 3.2-24.15l8.25-30.9-12.7-3.4 7.9-29.45 12.7 3.45m-326.7-18.15q14.25 5.5 22.7 23.8h0.1l1.05 4-0.5 0.4-0.1-0.2-38.85 13.15q-4.1-9.25-9.15-11.65-5.5-2.35-13.1-0.35-6.1 1.65-8.4 5-2.4 3.35-1.6 6.4 0.7 2.5 4.25 3.7 2.6 1.5 12.8 0.95 27.85-1.5 41.15 1.45 12.75 3.1 20.65 10.3l0.85 0.85q7.3 7.3 10.05 17.4 2.9 11 0.4 21.55l-1.15 4.15q-4.2 12.55-15.4 21.5-11.2 9-30.5 14.2-33.45 8.95-50-0.15-16.2-9.85-24.05-31.1l40.35-13.55q4.25 9.75 9.05 13.35 7.45 5.55 17.6 2.85 8.1-2.15 11.2-6.75 3.05-4.65 1.85-9.2-1.05-4.1-6.05-6.55t-22.15-1.65q-26.85 1.2-42.6-8.75-13.05-4.05-17.35-20.25-2.75-10.2 0.9-20.95t13.8-19.45q10.3-8.2 31.1-13.75 24.8-6.65 41.1-0.7m37.25 23.3h13l0.1-29.3h40.35v29.3h20.45v25.7l0.2-0.65-0.4 5.95-0.85-0.05v-0.5h-19.4v32.5q0 5.8 1.05 7.4 1.05 2.05 4.7 2.05 3.25 0 11.05-2.05h0.9v29.05q-12.95 2.4-23.5 2.4-14.2 0-21-3.7-7.35-3.65-10.5-11.55-3.15-7.3-3.15-24.1v-32h-13v-30.45" fill="#fff" fill-rule="evenodd"/>
  <path d="m63.55-54.2q4.7 2.65 7.35 10.5 3.15 7.85 3.15 15.25v42q0 6.8 0.55 10.45 0.85 3 6.5 12.1h-40.1l-3.7-6.8q-0.5-2.1-0.5-4.75-4.75 6.3-12.6 9.45-10 4.2-23.1 4.2l-10.6-0.85q-23.7-7.35-23.7-33.9 0-9.9 6.75-16.2 7.2-5.8 22.3-8.85l26.75-5.8q5.8-1.6 11.55-3.7 0-4.75-2.1-6.8-2.65-2.65-8.9-2.65-8.45 0-12.6 2.65-2.65 2.05-5.25 8.9l-37.45-3.6 0.35-5.95q2-7.2 5.1-11.4 3.65-5.8 11.55-10 5.2-2.6 14.15-4.2 8.9-1.55 19.4-1.55 16.8 0 27.3 1.55 10.5 2.05 17.85 9.95m-29.4 44.65q-5.25 2.6-15.2 4.7-8.95 2.65-11.55 5.25-2.65 2.65-2.65 5.8 0 3.65 2.65 5.75 2.1 2.1 7.35 2.1 5.75 0 10.5-2.6 4.7-2.65 6.8-6.85 2.1-3.65 2.1-10v-4.15m80.3-38q0.2-9.55 5.3-14.5 5.15-4.95 13.45-6.1 7.9-1.15 19 3.1l-0.1-0.8 0.1 0.1 0.2 0.65v0.05l-7.3 30.1q-8-1.45-11.55-0.95-5.75 0.8-8.5 3.85-4.25 11.15-1.05 33.5l4.7 33.8-39.25 5.6-15.15-98.6 37.9-5.35 2.25 15.55m64-21.2 7.6-25.3 40.15 9.1-8.75 26.65 19.75 5.3-7.85 29.4-19.75-5.3-8.4 31.4q-1.5 5.6-0.85 7.45 0.4 2.25 4 3.2l13.35 0.85-5 28.55q-15.5-0.85-27.15-4-13.7-3.65-19.35-9-2.3-2-3.85-4.45-2.65-4.15-3.25-9.4-1.15-7.9 3.2-24.15l8.25-30.9-12.7-3.4 7.9-29.45 12.7 3.45m-326.7-18.15q14.25 5.5 22.7 23.8h0.1l1.05 4-0.5 0.4-0.1-0.2-38.85 13.15q-4.1-9.25-9.15-11.65-5.5-2.35-13.1-0.35-6.1 1.65-8.4 5-2.4 3.35-1.6 6.4 0.7 2.5 4.25 3.7 2.6 1.5 12.8 0.95 27.85-1.5 41.15 1.45 12.75 3.1 20.65 10.3l0.85 0.85q7.3 7.3 10.05 17.4 2.9 11 0.4 21.55l-1.15 4.15q-4.2 12.55-15.4 21.5-11.2 9-30.5 14.2-33.45 8.95-50-0.15-16.2-9.85-24.05-31.1l40.35-13.55q4.25 9.75 9.05 13.35 7.45 5.55 17.6 2.85 8.1-2.15 11.2-6.75 3.05-4.65 1.85-9.2-1.05-4.1-6.05-6.55t-22.15-1.65q-26.85 1.2-42.6-8.75-13.05-4.05-17.35-20.25-2.75-10.2 0.9-20.95t13.8-19.45q10.3-8.2 31.1-13.75 24.8-6.65 41.1-0.7m37.25 23.3h13l0.1-29.3h40.35v29.3h20.45v25.7l0.2-0.65-0.4 5.95-0.85-0.05v-0.5h-19.4v32.5q0 5.8 1.05 7.4 1.05 2.05 4.7 2.05 3.25 0 11.05-2.05h0.9v29.05q-12.95 2.4-23.5 2.4-14.2 0-21-3.7-7.35-3.65-10.5-11.55-3.15-7.3-3.15-24.1v-32h-13v-30.45" fill="none" stroke="#fff" stroke-linecap="round" stroke-linejoin="round" stroke-width="8"/>
  <path d="m-38.1-33.2h-19.5v32.55q0 5.8 1.05 7.35 1.05 2.1 4.8 2.1 3.15 0 10.95-2.1h0.95v29.15q-12.95 2.3-23.45 2.3-14.25 0-21-3.6-7.35-3.7-10.5-11.55-3.15-7.35-3.15-24.15v-32.05h-13.05v-30.45h13.05v-29.3h40.35v29.3h20.55v25.8l0.1-0.7q-0.1 3-0.35 5.9h-0.8v-0.55" fill="url(#gradient0)" fill-rule="evenodd"/>
  <path d="m186.05-94.1 40.15 9.1-8.75 26.7 19.8 5.25-7.9 29.4-19.75-5.25-8.4 31.4q-1.5 5.6-0.9 7.45 0.45 2.2 4.05 3.15l13.3 0.95-4.9 28.55q-15.6-0.95-27.15-4.1-13.75-3.6-19.35-8.95-2.35-2-3.85-4.45-2.7-4.2-3.3-9.45-1.15-7.9 3.15-24.15l8.3-30.9-12.7-3.35 7.9-29.4 12.7 3.35 7.6-25.3" fill="url(#gradient1)" fill-rule="evenodd"/>
  <path d="m-189.4-86.15q24.85-6.8 41.15-0.7 14.25 5.45 22.65 23.8h0.1l1.05 3.95-0.45 0.45-0.1-0.2-38.85 13.05q-4.1-9.2-9.1-11.65-5.6-2.35-13.2-0.25-6.05 1.5-8.4 4.9-2.3 3.4-1.5 6.4 0.6 2.6 4.2 3.75 2.55 1.5 12.85 0.95 27.75-1.55 41.05 1.5 12.8 3.05 20.75 10.25l0.8 0.8q7.25 7.35 10.05 17.4 2.9 10.95 0.45 21.6l-1.15 4.2q-4.3 12.45-15.4 21.45-11.3 8.95-30.55 14.2-33.5 8.9-50.05-0.2-16.2-9.8-24.05-31.05l40.4-13.5q4.2 9.65 9.1 13.3 7.45 5.6 17.6 2.9 8.05-2.2 11.2-6.75 3-4.7 1.85-9.25-1.15-4.05-6.05-6.5-5.05-2.45-22.15-1.65-26.95 1.15-42.6-8.75-13.05-4.2-17.35-20.3-2.8-10.25 0.8-21 3.6-10.7 13.85-19.35 10.3-8.3 31.05-13.75" fill="url(#gradient2)" fill-rule="evenodd"/>
  <path d="m152.25-65.75 0.2 0.7-7.35 30.1q-8.05-1.4-11.55-0.95-5.8 0.85-8.5 3.85-4.3 11.1-1.05 33.5l4.65 33.8-39.15 5.6-15.2-98.55 37.9-5.35q1.05 7.7 2.25 15.5 0.2-9.55 5.35-14.45 5-5.05 13.4-6.2 7.85-1.15 19.05 3.15-0.15-0.35-0.15-0.8l0.15 0.1" fill="url(#gradient3)" fill-rule="evenodd"/>
  <path d="m63.6-54.2q4.65 2.7 7.35 10.5 3.15 7.95 3.15 15.25v42q0 6.8 0.45 10.5 0.8 2.95 6.55 12h-40.15l-3.6-6.75q-0.6-2.1-0.6-4.75-4.65 6.3-12.6 9.45-9.9 4.15-23.1 4.15l-10.6-0.8q-23.65-7.35-23.65-33.95 0-9.9 6.75-16.2 7.1-5.7 22.25-8.85l26.85-5.75q5.7-1.6 11.55-3.7 0-4.65-2.1-6.75-2.7-2.7-9-2.7-8.4 0-12.6 2.7-2.55 2.1-5.25 8.85l-37.4-3.65 0.35-5.9q1.95-7.25 5.1-11.45 3.6-5.7 11.55-9.9 5.25-2.7 14.1-4.2 9-1.65 19.5-1.65 16.8 0 27.3 1.65 10.5 2.1 17.85 9.9m-29.4 44.65q-5.25 2.6-15.3 4.7-8.85 2.65-11.55 5.25-2.55 2.65-2.55 5.8 0 3.65 2.55 5.75 2.1 2.1 7.35 2.1 5.85 0 10.5-2.6 4.8-2.65 6.9-6.85 2.1-3.65 2.1-9.95v-4.2" fill="url(#gradient4)" fill-rule="evenodd"/>
  <path d="m-147.85 20.65q1.45 0 2.45 1.05 1.1 1.05 1.1 2.5t-1.1 2.45q-1 1.1-2.45 1.1t-2.5-1.1q-1.05-1-1.05-2.45t1.05-2.5 2.5-1.05" fill="#fff" fill-opacity=".50196" fill-rule="evenodd"/>
  <path d="m-207.9-71.15q3.25 0 5.55 2.3 2.45 2.4 2.45 5.65t-2.45 5.6q-2.3 2.4-5.55 2.4t-5.65-2.4q-2.3-2.35-2.3-5.6t2.3-5.65q2.4-2.3 5.65-2.3" fill="#fff" fill-opacity=".50196" fill-rule="evenodd"/>
  <path d="m-132.7 4.7q3.25 0 5.55 2.3 2.45 2.4 2.45 5.65t-2.45 5.6q-2.3 2.4-5.55 2.4t-5.65-2.4q-2.3-2.35-2.3-5.6t2.3-5.65q2.4-2.3 5.65-2.3" fill="#fff" fill-opacity=".50196" fill-rule="evenodd"/>
  <path d="m-127.45-20.2q4.25 0 7.25 3 3.1 3.15 3.1 7.35 0 4.25-3.1 7.25-3 3.15-7.25 3.15t-7.35-3.15q-3-3-3-7.25 0-4.2 3-7.35 3.1-3 7.35-3" fill="#fff" fill-opacity=".50196" fill-rule="evenodd"/>
  <path d="m52.95 4.75q4.25 0 7.25 3 3.1 3.15 3.1 7.35 0 4.25-3.1 7.25-3 3.15-7.25 3.15t-7.35-3.15q-3-3-3-7.25 0-4.2 3-7.35 3.1-3 7.35-3" fill="#fff" fill-opacity=".50196" fill-rule="evenodd"/>
  <path d="m-77-11.9q4.25 0 7.25 3 3.1 3.15 3.1 7.35 0 4.25-3.1 7.25-3 3.15-7.25 3.15t-7.35-3.15q-3-3-3-7.25 0-4.2 3-7.35 3.1-3 7.35-3" fill="#fff" fill-opacity=".50196" fill-rule="evenodd"/>
  <path d="m-68.55 11.8q3.25 0 5.55 2.3 2.45 2.4 2.45 5.65t-2.45 5.6q-2.3 2.4-5.55 2.4t-5.65-2.4q-2.3-2.35-2.3-5.6t2.3-5.65q2.4-2.3 5.65-2.3" fill="#fff" fill-opacity=".50196" fill-rule="evenodd"/>
  <path d="m-52.1 20.65q1.45 0 2.45 1.05 1.1 1.05 1.1 2.5t-1.1 2.45q-1 1.1-2.45 1.1t-2.5-1.1q-1.05-1-1.05-2.45t1.05-2.5 2.5-1.05" fill="#fff" fill-opacity=".50196" fill-rule="evenodd"/>
  <path d="m-83.8-73.3q1.45 0 2.45 1.05 1.1 1.05 1.1 2.5t-1.1 2.45q-1 1.1-2.45 1.1t-2.5-1.1q-1.05-1-1.05-2.45t1.05-2.5 2.5-1.05" fill="#fff" fill-opacity=".50196" fill-rule="evenodd"/>
  <path d="m48.35-15.45q3.25 0 5.55 2.3 2.45 2.4 2.45 5.65t-2.45 5.6q-2.3 2.4-5.55 2.4t-5.65-2.4q-2.3-2.35-2.3-5.6t2.3-5.65q2.4-2.3 5.65-2.3" fill="#fff" fill-opacity=".50196" fill-rule="evenodd"/>
  <path d="m46.15-30.2q1.45 0 2.45 1.05 1.1 1.05 1.1 2.5t-1.1 2.45q-1 1.1-2.45 1.1t-2.5-1.1q-1.05-1-1.05-2.45t1.05-2.5 2.5-1.05" fill="#fff" fill-opacity=".50196" fill-rule="evenodd"/>
  <path d="m-9.15-48.6q1.45 0 2.45 1.05 1.1 1.05 1.1 2.5t-1.1 2.45q-1 1.1-2.45 1.1t-2.5-1.1q-1.05-1-1.05-2.45t1.05-2.5 2.5-1.05" fill="#fff" fill-opacity=".50196" fill-rule="evenodd"/>
  <path d="m99.5 7.1q4.25 0 7.25 3 3.1 3.15 3.1 7.35 0 4.25-3.1 7.25-3 3.15-7.25 3.15t-7.35-3.15q-3-3-3-7.25 0-4.2 3-7.35 3.1-3 7.35-3" fill="#fff" fill-opacity=".50196" fill-rule="evenodd"/>
  <path d="m97.1-13.6q3.25 0 5.55 2.3 2.45 2.4 2.45 5.65t-2.45 5.6q-2.3 2.4-5.55 2.4t-5.65-2.4q-2.3-2.35-2.3-5.6t2.3-5.65q2.4-2.3 5.65-2.3" fill="#fff" fill-opacity=".50196" fill-rule="evenodd"/>
  <path d="m97.1-25.85q1.45 0 2.45 1.05 1.1 1.05 1.1 2.5t-1.1 2.45q-1 1.1-2.45 1.1t-2.5-1.1q-1.05-1-1.05-2.45t1.05-2.5 2.5-1.05" fill="#fff" fill-opacity=".50196" fill-rule="evenodd"/>
  <path d="m138.85-55.1q1.45 0 2.45 1.05 1.1 1.05 1.1 2.5t-1.1 2.45q-1 1.1-2.45 1.1t-2.5-1.1q-1.05-1-1.05-2.45t1.05-2.5 2.5-1.05" fill="#fff" fill-opacity=".50196" fill-rule="evenodd"/>
  <path d="m126.5-52.25q2.6 0 4.45 1.85 1.95 1.95 1.95 4.55t-1.95 4.45q-1.85 1.9-4.45 1.9t-4.55-1.9q-1.85-1.85-1.85-4.45t1.85-4.55q1.95-1.85 4.55-1.85" fill="#fff" fill-opacity=".50196" fill-rule="evenodd"/>
  <path d="m187.55-10.75q4.25 0 7.25 3 3.1 3.15 3.1 7.35 0 4.25-3.1 7.25-3 3.15-7.25 3.15t-7.35-3.15q-3-3-3-7.25 0-4.2 3-7.35 3.1-3 7.35-3" fill="#fff" fill-opacity=".50196" fill-rule="evenodd"/>
  <path d="m196 13q3.25 0 5.55 2.3 2.45 2.4 2.45 5.65t-2.45 5.6q-2.3 2.4-5.55 2.4t-5.65-2.4q-2.3-2.35-2.3-5.6t2.3-5.65q2.4-2.3 5.65-2.3" fill="#fff" fill-opacity=".50196" fill-rule="evenodd"/>
  <path d="m212.45 21.85q1.45 0 2.45 1.05 1.1 1.05 1.1 2.5t-1.1 2.45q-1 1.1-2.45 1.1t-2.5-1.1q-1.05-1-1.05-2.45t1.05-2.5 2.5-1.05" fill="#fff" fill-opacity=".50196" fill-rule="evenodd"/>
  <path d="m180.7-72.1q1.45 0 2.45 1.05 1.1 1.05 1.1 2.5t-1.1 2.45q-1 1.1-2.45 1.1t-2.5-1.1q-1.05-1-1.05-2.45t1.05-2.5 2.5-1.05" fill="#fff" fill-opacity=".50196" fill-rule="evenodd"/>
 </g>
 <defs>
  <linearGradient id="gradient0" x1="-819.2" x2="819.2" gradientTransform="matrix(.2864 0 0 .2816 .7 -32.15)" gradientUnits="userSpaceOnUse">
   <stop stop-color="#fc0" offset=".023529"/>
   <stop stop-color="#f00" offset="1"/>
  </linearGradient>
  <linearGradient id="gradient1" x1="-819.2" x2="819.2" gradientTransform="matrix(.2766 .0741 -.0729 .272 7.6 -81.95)" gradientUnits="userSpaceOnUse">
   <stop stop-color="#fc0" offset=".023529"/>
   <stop stop-color="#f00" offset="1"/>
  </linearGradient>
  <linearGradient id="gradient2" x1="-819.2" x2="819.2" gradientTransform="matrix(.2766 -.0741 .0729 .272 -9.45 -61.55)" gradientUnits="userSpaceOnUse">
   <stop stop-color="#fc0" offset=".023529"/>
   <stop stop-color="#f00" offset="1"/>
  </linearGradient>
  <linearGradient id="gradient3" x1="-819.2" x2="819.2" gradientTransform="matrix(.2834 -.04 .0393 .2787 2.95 -15.95)" gradientUnits="userSpaceOnUse">
   <stop stop-color="#fc0" offset=".023529"/>
   <stop stop-color="#f00" offset="1"/>
  </linearGradient>
  <linearGradient id="gradient4" x1="-819.2" x2="819.2" gradientTransform="matrix(.2864 0 0 .2816 5.85 -32.15)" gradientUnits="userSpaceOnUse">
   <stop stop-color="#fc0" offset=".023529"/>
   <stop stop-color="#f00" offset="1"/>
  </linearGradient>
 </defs>
</svg>
