<?xml version="1.0" encoding="UTF-8" standalone="no"?>
<svg
   height="54"
   width="725"
   version="1.1"
   id="svg21"
   sodipodi:docname="89.svg"
   inkscape:version="1.1.2 (b8e25be833, 2022-02-05)"
   xmlns:inkscape="http://www.inkscape.org/namespaces/inkscape"
   xmlns:sodipodi="http://sodipodi.sourceforge.net/DTD/sodipodi-0.dtd"
   xmlns="http://www.w3.org/2000/svg"
   xmlns:svg="http://www.w3.org/2000/svg">
  <sodipodi:namedview
     id="namedview23"
     pagecolor="#ffffff"
     bordercolor="#666666"
     borderopacity="1.0"
     inkscape:pageshadow="2"
     inkscape:pageopacity="0.0"
     inkscape:pagecheckerboard="0"
     showgrid="false"
     inkscape:zoom="2.3340708"
     inkscape:cx="361.38579"
     inkscape:cy="26.134598"
     inkscape:window-width="3440"
     inkscape:window-height="1330"
     inkscape:window-x="-12"
     inkscape:window-y="-12"
     inkscape:window-maximized="1"
     inkscape:current-layer="svg21" />
  <g
     transform="translate(-38.65,-178.7)"
     id="g12">
    <path
       d="m 747.75,182.4 q 15,0 15,15 V 217 q 0,15 -15,15 H 54.55 q -15,0 -15,-15 v -19.6 q 0,-15 15,-15 h 693.2"
       fill="#7b7b7b"
       fill-opacity="0.352941"
       fill-rule="evenodd"
       stroke="none"
       id="path2" />
    <path
       d="m 747.75,179.4 q 15,0 15,15 V 214 q 0,15 -15,15 H 54.55 q -15,0 -15,-15 v -19.6 q 0,-15 15,-15 h 693.2"
       fill="#ffffff"
       fill-rule="evenodd"
       stroke="none"
       id="path4" />
    <path
       d="m 74.8,184.2 q 8.45,0 14.4,5.95 6,6 6,14.45 0,8.45 -6,14.4 -5.95,6 -14.4,6 -8.45,0 -14.45,-6 -5.95,-5.95 -5.95,-14.4 0,-8.45 5.95,-14.45 6,-5.95 14.45,-5.95"
       fill="#ff6600"
       fill-rule="evenodd"
       stroke="none"
       id="path6" />
    <path
       d="m 74.85,188.05 q 6.85,0 11.65,4.8 4.85,4.9 4.85,11.75 0,6.8 -4.85,11.65 -4.8,4.85 -11.65,4.85 -6.85,0 -11.7,-4.85 -4.85,-4.85 -4.85,-11.65 0,-6.85 4.85,-11.75 4.85,-4.8 11.7,-4.8"
       fill="#ff9900"
       fill-rule="evenodd"
       stroke="none"
       id="path8" />
    <path
       d="m 63.45,198.2 q -0.1,-3 3.1,-5.2 3.25,-2.3 7.95,-2.45 4.65,-0.15 8,1.9 3.45,1.95 3.55,4.95 0.1,3 -3.2,5.3 -3.2,2.2 -7.85,2.35 -4.7,0.15 -8.1,-1.8 -3.35,-2.05 -3.45,-5.05"
       fill="url(#gradient0)"
       fill-rule="evenodd"
       stroke="none"
       id="path10"
       style="fill:url(#gradient0)" />
  </g>
  <defs
     id="defs19">
    <linearGradient
       gradientTransform="matrix(-5e-4,-0.0141,0.0138,-5e-4,75.2,192.6)"
       gradientUnits="userSpaceOnUse"
       id="gradient0"
       spreadMethod="pad"
       x1="-819.20001"
       x2="819.20001">
      <stop
         offset="0.0"
         stop-color="#ffffff"
         stop-opacity="0.0"
         id="stop14" />
      <stop
         offset="1.0"
         stop-color="#ffffff"
         id="stop16" />
    </linearGradient>
  </defs>
</svg>
