<?xml version="1.0" encoding="UTF-8" standalone="no"?>
<svg
   height="173"
   width="542"
   version="1.1"
   id="svg31"
   sodipodi:docname="90.svg"
   inkscape:version="1.1.2 (b8e25be833, 2022-02-05)"
   xmlns:inkscape="http://www.inkscape.org/namespaces/inkscape"
   xmlns:sodipodi="http://sodipodi.sourceforge.net/DTD/sodipodi-0.dtd"
   xmlns="http://www.w3.org/2000/svg"
   xmlns:svg="http://www.w3.org/2000/svg">
  <sodipodi:namedview
     id="namedview33"
     pagecolor="#ffffff"
     bordercolor="#666666"
     borderopacity="1.0"
     inkscape:pageshadow="2"
     inkscape:pageopacity="0.0"
     inkscape:pagecheckerboard="0"
     showgrid="false"
     inkscape:zoom="3.1221676"
     inkscape:cx="270.16487"
     inkscape:cy="85.51751"
     inkscape:window-width="3440"
     inkscape:window-height="1330"
     inkscape:window-x="-12"
     inkscape:window-y="-12"
     inkscape:window-maximized="1"
     inkscape:current-layer="svg31" />
  <g
     transform="translate(-230.725,-267.45)"
     id="g22">
    <path
       d="m 752,278.4 q 10.05,0 10.05,10.05 v 131 q 0,10.05 -10.05,10.05 H 251.45 q -10.05,0 -10.05,-10.05 v -131 q 0,-10.05 10.05,-10.05 H 752"
       fill="#ff9900"
       fill-rule="evenodd"
       stroke="none"
       id="path2" />
    <path
       d="M 752,278.4 H 251.45 q -10.05,0 -10.05,10.05 v 131 q 0,10.05 10.05,10.05 H 752 q 10.05,0 10.05,-10.05 v -131 q 0,-10.05 -10.05,-10.05 z"
       fill="none"
       stroke="#ffffff"
       stroke-linecap="round"
       stroke-linejoin="round"
       stroke-width="20"
       id="path4" />
    <path
       d="m 752,278.4 q 10.05,0 10.05,10.05 v 131 q 0,10.05 -10.05,10.05 H 251.45 q -10.05,0 -10.05,-10.05 v -131 q 0,-10.05 10.05,-10.05 H 752"
       fill="#ff9900"
       fill-rule="evenodd"
       stroke="none"
       id="path6" />
    <path
       d="m 749.15,275.55 q 9.95,0 9.95,10.05 v 131 q 0,10.05 -9.95,10.05 h -495 q -9.95,0 -9.95,-10.05 v -131 q 0,-10.05 9.95,-10.05 h 495"
       fill="url(#gradient0)"
       fill-rule="evenodd"
       stroke="none"
       id="path8"
       style="fill:url(#gradient0)" />
    <path
       d="m 438.5,416.65 q -11.7,0 -11.7,-10.8 V 299 q 0,-10.8 11.7,-10.8 h 129.95 q 11.7,0 11.7,10.8 v 106.85 q 0,10.8 -11.7,10.8 H 438.5"
       fill="#ffffff"
       fill-rule="evenodd"
       stroke="none"
       id="path10" />
    <path
       d="m 438.5,416.65 h 129.95 q 11.7,0 11.7,-10.8 V 299 q 0,-10.8 -11.7,-10.8 H 438.5 q -11.7,0 -11.7,10.8 v 106.85 q 0,10.8 11.7,10.8 z"
       fill="none"
       stroke="#bd4b00"
       stroke-linecap="round"
       stroke-linejoin="round"
       stroke-width="8"
       id="path12" />
    <path
       d="m 607.55,416.65 q -11.7,0 -11.7,-10.8 V 299 q 0,-10.8 11.7,-10.8 H 737.5 q 11.7,0 11.7,10.8 v 106.85 q 0,10.8 -11.7,10.8 H 607.55"
       fill="#ffffff"
       fill-rule="evenodd"
       stroke="none"
       id="path14" />
    <path
       d="M 607.55,416.65 H 737.5 q 11.7,0 11.7,-10.8 V 299 q 0,-10.8 -11.7,-10.8 H 607.55 q -11.7,0 -11.7,10.8 v 106.85 q 0,10.8 11.7,10.8 z"
       fill="none"
       stroke="#bd4b00"
       stroke-linecap="round"
       stroke-linejoin="round"
       stroke-width="8"
       id="path16" />
    <path
       d="m 269.45,416.65 q -11.7,0 -11.7,-10.8 V 299 q 0,-10.8 11.7,-10.8 H 399.4 q 11.7,0 11.7,10.8 v 106.85 q 0,10.8 -11.7,10.8 H 269.45"
       fill="#ffffff"
       fill-rule="evenodd"
       stroke="none"
       id="path18" />
    <path
       d="M 269.45,416.65 H 399.4 q 11.7,0 11.7,-10.8 V 299 q 0,-10.8 -11.7,-10.8 H 269.45 q -11.7,0 -11.7,10.8 v 106.85 q 0,10.8 11.7,10.8 z"
       fill="none"
       stroke="#bd4b00"
       stroke-linecap="round"
       stroke-linejoin="round"
       stroke-width="8"
       id="path20" />
  </g>
  <defs
     id="defs29">
    <linearGradient
       gradientTransform="matrix(2e-4,0.0758,-0.0911,2e-4,500.85,379.8)"
       gradientUnits="userSpaceOnUse"
       id="gradient0"
       spreadMethod="pad"
       x1="-819.20001"
       x2="819.20001">
      <stop
         offset="0.0"
         stop-color="#ffffff"
         stop-opacity="0.0"
         id="stop24" />
      <stop
         offset="1.0"
         stop-color="#ffffff"
         id="stop26" />
    </linearGradient>
  </defs>
</svg>
